<svg width="62" height="62" viewBox="0 0 62 62" fill="none" xmlns="http://www.w3.org/2000/svg">
<circle cx="46" cy="16" r="16" fill="#FFDBBC"/>
<g clip-path="url(#clip0_9315_142058)">
<path d="M34.5732 15.088H5.6543C2.53613 15.088 0 17.6242 0 20.7423V46.0841C0 47.2843 1.35732 47.9609 2.31543 47.2765L10.3691 41.5304C11.0449 41.049 11.8398 40.7941 12.6699 40.7941H30.3838C33.502 40.7941 36.0381 38.258 36.0381 35.1398V16.5529C36.0381 15.7443 35.3818 15.088 34.5732 15.088ZM27.458 32.8332H10.5332C9.72461 32.8332 9.06836 32.1779 9.06836 31.3683C9.06836 30.5597 9.72461 29.9035 10.5332 29.9035H27.458C28.2666 29.9035 28.9229 30.5597 28.9229 31.3683C28.9229 32.1779 28.2666 32.8332 27.458 32.8332ZM27.458 25.9972H10.5332C9.72461 25.9972 9.06836 25.3419 9.06836 24.5324C9.06836 23.7238 9.72461 23.0675 10.5332 23.0675H27.458C28.2666 23.0675 28.9229 23.7238 28.9229 24.5324C28.9229 25.3419 28.2666 25.9972 27.458 25.9972Z" fill="#064492"/>
<path d="M50 32.1048V57.4456C50 58.6377 48.6495 59.3272 47.6846 58.638L39.6309 52.8929C38.9551 52.4114 38.1602 52.1565 37.3301 52.1565H19.6162C16.498 52.1565 13.9619 49.6194 13.9619 46.5013V43.7239H30.3838C35.1172 43.7239 38.9678 39.8733 38.9678 35.1399V26.4495H44.3457C47.4639 26.4495 50 28.9866 50 32.1048Z" fill="#064492"/>
</g>
<defs>
<clipPath id="clip0_9315_142058">
<rect width="50" height="50" fill="white" transform="translate(0 12)"/>
</clipPath>
</defs>
</svg>
