<svg width="56" height="56" viewBox="0 0 56 56" fill="none" xmlns="http://www.w3.org/2000/svg">
<g clip-path="url(#clip0_10107_146126)">
<path d="M11.4468 37.1963H3.80463C1.70685 37.1963 0 38.9031 0 41.0009V44.7885C0 46.1441 0.706665 47.3494 1.79999 48.0244V54.3583C1.79999 55.2645 2.53442 55.999 3.44061 55.999H11.8108C12.717 55.999 13.4514 55.2645 13.4514 54.3583V48.0244C14.5443 47.3494 15.2514 46.1437 15.2514 44.7885V41.0009C15.2514 38.9031 13.5446 37.1963 11.4468 37.1963Z" fill="#064492"/>
<path d="M13.2318 30.5426C13.2318 27.4502 10.7161 24.9346 7.62372 24.9346C4.53174 24.9346 2.01611 27.4502 2.01611 30.5426C2.01611 33.6346 4.53174 36.1502 7.62372 36.1502C10.7161 36.1502 13.2318 33.6346 13.2318 30.5426Z" fill="#064492"/>
<path d="M32.7065 34.8901H23.1016C20.6979 34.8901 18.7419 36.8478 18.7419 39.2545V41.5791C18.7419 43.2163 19.64 44.6625 21.0072 45.4089L21.0333 54.364C21.0358 55.2685 21.7698 55.9999 22.6739 55.9999H33.1935C34.0899 55.9999 34.8367 55.2505 34.8342 54.3546L34.8081 45.4055C36.1714 44.6578 37.0665 43.2137 37.0665 41.5791V39.2545C37.0665 36.8478 35.1106 34.8901 32.7065 34.8901Z" fill="#064492"/>
<path d="M27.9022 32.7591C31.556 32.7591 34.5284 29.7863 34.5284 26.1325C34.5284 22.4787 31.556 19.5063 27.9022 19.5063C24.2484 19.5063 21.2756 22.4787 21.2756 26.1325C21.2756 29.7863 24.2484 32.7591 27.9022 32.7591Z" fill="#064492"/>
<path d="M36.0617 5.27563L31.7794 4.1554L29.3356 0.694275C29.0284 0.258911 28.5285 0 27.9953 0C27.4625 0 26.9627 0.258911 26.655 0.694275L24.2112 4.1554L19.9289 5.27563C19.3837 5.41791 18.9501 5.8302 18.78 6.36725C18.6096 6.9043 18.7271 7.49133 19.0911 7.92157L21.8135 11.1434L21.6276 15.2377C21.6029 15.782 21.8502 16.3033 22.2873 16.6284C22.7244 16.954 23.2948 17.0407 23.8087 16.8608L27.9953 15.3945L32.1819 16.8608C32.6929 17.0399 33.2688 16.9518 33.7033 16.6284C34.1408 16.3033 34.3878 15.782 34.363 15.2377L34.1771 11.1434L36.9 7.92157C37.2636 7.49133 37.381 6.9043 37.211 6.36725C37.0405 5.8302 36.6069 5.41791 36.0617 5.27563Z" fill="#064492"/>
<path d="M14.4149 6.90594L11.0708 6.0318L9.1653 3.33246C8.85768 2.89709 8.35823 2.63818 7.82503 2.63818C7.29225 2.63818 6.79237 2.89709 6.48476 3.33246L4.57924 6.03137L1.23518 6.90594C0.690019 7.04865 0.256364 7.46051 0.0863197 7.99799C-0.0841514 8.53503 0.0333413 9.12164 0.397355 9.55188L2.51436 12.0577L2.36995 15.2377C2.34517 15.782 2.59212 16.3032 3.02962 16.6284C3.46669 16.9539 4.03706 17.0406 4.55104 16.8604L7.82503 15.7141L11.099 16.8604C11.6091 17.0389 12.1872 16.9509 12.6209 16.6284C13.0579 16.3032 13.3049 15.782 13.2801 15.2377L13.1357 12.0577L15.2531 9.55188C15.6167 9.12164 15.7342 8.53503 15.5642 7.99756C15.3941 7.46094 14.96 7.04865 14.4149 6.90594Z" fill="#064492"/>
<path d="M42.8738 12.0577L42.7294 15.2377C42.7046 15.782 42.9515 16.3032 43.3886 16.6284C43.8261 16.9539 44.3965 17.0406 44.9104 16.8608L48.1844 15.714C48.1844 15.714 51.4563 16.8599 51.4584 16.8608C51.9416 17.03 52.5445 16.9522 52.9798 16.6284C53.4173 16.3032 53.6643 15.782 53.6395 15.2377L53.4951 12.0577L55.6121 9.55231C55.9761 9.12164 56.0936 8.53503 55.9231 7.99798C55.7531 7.46094 55.3194 7.04864 54.7743 6.90594L51.4302 6.0318L49.5243 3.33246C49.2171 2.89709 48.7172 2.63818 48.1844 2.63818C47.6512 2.63818 47.1514 2.89709 46.8442 3.33246L44.9382 6.0318L41.5942 6.90594C41.0494 7.04864 40.6153 7.46094 40.4453 7.99798C40.2753 8.53503 40.3928 9.12164 40.7563 9.55231L42.8738 12.0577Z" fill="#064492"/>
<path d="M52.1953 37.1963H44.5527C42.455 37.1963 40.7485 38.9031 40.7485 41.0009V44.7885C40.7485 46.1437 41.4552 47.3494 42.5481 48.0244V54.3583C42.5481 55.2645 43.283 55.999 44.1887 55.999H52.5593C53.4651 55.999 54.2 55.2645 54.2 54.3583V48.0244C55.2928 47.3494 55.9995 46.1441 55.9995 44.7885V41.0009C55.9995 38.9031 54.2931 37.1963 52.1953 37.1963Z" fill="#064492"/>
<path d="M48.3724 24.9346C45.2804 24.9346 42.7648 27.4502 42.7648 30.5426C42.7648 33.6346 45.2804 36.1502 48.3724 36.1502C51.4648 36.1502 53.98 33.6346 53.98 30.5426C53.98 27.4502 51.4644 24.9346 48.3724 24.9346Z" fill="#064492"/>
</g>
<defs>
<clipPath id="clip0_10107_146126">
<rect width="56" height="56" fill="white"/>
</clipPath>
</defs>
</svg>
