<svg width="24" height="24" viewBox="0 0 24 24" fill="none" xmlns="http://www.w3.org/2000/svg">
    <g clip-path="url(#clip0_9238_141987)">
        <path d="M13.2572 5.22201C15.0829 3.68831 16.3028 0.233111 15.5521 0.0819888C14.5545 -0.118886 12.3883 0.761926 11.3413 0.917114C9.85629 1.09642 8.23889 -0.693218 7.33103 0.304324C6.59287 1.11539 7.86024 4.06499 9.84307 5.34998C3.92739 8.25744 -4.38751 22.8532 10.1183 23.9122C30.1895 25.3776 20.1391 8.05527 13.2572 5.22201Z" fill="#064492"/>
        <path d="M12.5028 15.9875C13.8842 15.9875 15 14.871 15 13.4938C15 12.1187 13.8798 11 12.5028 11H9.98887C9.85926 11 9.75417 11.1049 9.75417 11.2344V14.5146H9.2347C9.10508 14.5146 9 14.6195 9 14.749V15.7531C9 15.8826 9.10508 15.9875 9.2347 15.9875H9.75417V16.5229H9.2347C9.10508 16.5229 9 16.6279 9 16.7573V17.7615C9 17.8909 9.10508 17.9958 9.2347 17.9958H9.75417V18.7656C9.75417 18.8951 9.85926 19 9.98887 19H10.9944C11.1241 19 11.2291 18.8951 11.2291 18.7656V17.9958H12.7542C12.8838 17.9958 12.9889 17.8909 12.9889 17.7615V16.7573C12.9889 16.6278 12.8838 16.5229 12.7542 16.5229H11.2291V15.9875H12.5028ZM11.2291 12.4729H12.5028C13.0664 12.4729 13.525 12.9309 13.525 13.4938C13.525 14.0566 13.0664 14.5146 12.5028 14.5146H11.2291V12.4729Z" fill="white"/>
    </g>
    <defs>
        <clipPath id="clip0_9238_141987">
            <rect width="24" height="24" fill="white"/>
        </clipPath>
    </defs>
</svg>
