<svg width="200" height="44" viewBox="0 0 200 44" fill="none" xmlns="http://www.w3.org/2000/svg">
    <g clip-path="url(#clip0_9238_141819)">
        <path d="M34.8866 3.42845C35.3627 3.55799 35.3784 3.62728 35.6165 3.78995C38.577 5.80529 41.2242 8.02547 43.3137 12.1435C46.6314 18.6775 45.6226 24.2687 45.5725 24.6994C45.5223 25.1302 45.4722 25.2899 45.1527 25.3652C44.8331 25.4405 44.5669 24.9916 44.3852 24.7597C43.3482 23.4463 41.5625 20.717 38.6898 17.7798C35.9204 14.9481 32.2143 11.8151 28.6241 11.5982C24.4137 11.3452 22.9068 15.2102 19.2602 16.1681C16.0335 17.0147 14.4702 14.9873 14.3386 14.8427C14.207 14.6981 14.1068 14.5173 14.1288 14.3787C14.1507 14.2402 14.3888 14.1438 14.7647 13.8937C16.9639 12.4327 17.5215 11.5741 19.3667 9.32384C21.118 7.188 22.5779 4.88648 23.7746 4.31713C24.9682 3.74777 26.3435 3.36519 28.9343 3.22662C30.792 3.12721 31.7663 3.19951 33.5207 3.30193C34.235 3.34712 34.473 3.31699 34.8866 3.42845Z" fill="#FF9033"/>
        <path d="M28.8951 0.764793C28.9295 0.77383 28.9703 0.782867 29.0173 0.794917C29.3494 0.873241 29.8851 1.00278 29.8161 1.47875C29.7754 1.74987 29.4621 1.93062 29.0924 1.93062C28.6445 1.93062 27.6357 2.01195 26.5894 2.18668C24.9384 2.46382 23.7448 2.77109 22.8425 3.3525C21.7147 4.0785 20.8532 5.06659 18.2342 8.61526C16.0256 11.6097 14.124 12.7213 13.4411 13.1219C13.3753 13.1611 13.3189 13.1942 13.2782 13.2183C13.2124 13.2605 13.1497 13.2936 13.0902 13.3268C12.9116 13.4262 12.7581 13.5135 12.589 13.7184C12.354 14.0015 12.4511 14.2456 12.5514 14.4534C12.5576 14.4685 12.567 14.4896 12.5796 14.5137C12.7205 14.8179 13.1654 15.7819 14.2587 16.5802C15.4366 17.4418 16.5864 17.7039 17.827 17.6767C20.8219 17.6135 22.8238 15.9114 24.1364 14.7938C24.2617 14.6884 24.3776 14.589 24.4904 14.4956C25.7842 13.4201 27.3475 12.6007 29.4527 13.0586C31.5579 13.5165 34.0109 14.9836 37.0059 17.9539C40.0008 20.9272 44.559 27.2684 44.6467 27.419C44.6749 27.4703 44.7156 27.5154 44.7532 27.5636C44.8347 27.657 44.9193 27.7564 44.9287 27.9071C44.9443 28.13 44.9224 28.2535 44.8566 28.4915C44.3021 30.4978 42.9331 32.8264 41.9901 34.2152C41.8147 34.4742 41.6863 34.6399 41.398 34.6309C41.1318 34.6249 41.0378 34.5224 40.8059 34.2784C40.7871 34.2573 40.7652 34.2362 40.7464 34.2152C40.6524 34.1157 40.3298 33.7151 39.8317 33.1005C38.8636 31.9046 37.2408 29.9013 35.3925 27.7354C32.5918 24.4578 29.5968 21.617 29.2773 21.367C28.9577 21.117 28.5756 20.9423 28.2435 21.3188C27.9114 21.6924 28.2591 22.1442 28.469 22.334C28.6852 22.5298 33.0554 27.1329 34.6845 28.8982C36.3135 30.6635 39.9664 35.2454 40.1167 35.4623C40.1637 35.5286 40.2107 35.5828 40.2546 35.628C40.3454 35.7274 40.4143 35.8027 40.4143 35.9624C40.4143 36.1974 40.3517 36.2877 40.1668 36.4896C38.8166 37.9807 37.9394 38.6284 37.0153 39.3153C36.8148 39.4629 36.6143 39.6135 36.4044 39.7731L36.3824 39.7912C36.1475 39.972 35.9344 40.1346 35.687 40.1226C35.4927 40.1105 35.311 39.987 35.1012 39.8424C35.0385 39.7972 34.9696 39.7521 34.8975 39.7069C34.5936 39.5111 30.4772 36.345 27.8644 34.1368C25.6527 32.2691 22.9773 29.3681 22.1063 28.4252C21.9466 28.2535 21.8495 28.1481 21.8244 28.1209C21.8087 28.1059 21.7931 28.0908 21.7743 28.0697C21.5926 27.886 21.2574 27.5426 20.8532 27.9733C20.4679 28.386 20.6841 28.6481 20.8251 28.8259C20.847 28.853 20.8658 28.8771 20.8814 28.8982C21.0036 29.0729 23.8544 32.0793 26.5392 34.661C29.224 37.2457 33.4063 40.2039 33.5786 40.3154C33.7509 40.4269 34.0423 40.8004 34.0548 40.9691C34.0705 41.1348 33.9921 41.2432 33.7446 41.3848C32.1124 42.3217 29.719 43.0085 28.4972 43.3279C28.4596 43.3369 28.4158 43.3519 28.3719 43.367C28.2215 43.4152 28.0336 43.4755 27.8675 43.4544C27.6952 43.4333 27.3663 43.2827 27.2222 43.2104C26.0129 42.647 24.2774 41.7794 21.0663 39.3002C18.6415 37.3873 16.8589 35.0797 16.2982 34.3537C16.2042 34.2332 16.1478 34.1579 16.1227 34.1338C16.1165 34.1278 16.1133 34.1218 16.1071 34.1157C15.9473 33.947 15.681 33.6669 15.2111 34.0073C14.76 34.3357 15.067 34.7755 15.2455 35.0285L15.255 35.0436C15.2644 35.0556 15.2737 35.0707 15.2831 35.0827C15.4492 35.3268 16.8308 37.1463 19.03 39.1737C20.7906 40.7974 23.0054 42.2614 23.892 42.7916L23.8983 42.7946C24.0205 42.8669 24.6502 43.2435 24.4497 43.6442C24.2774 43.9906 23.8231 43.9816 23.6101 43.9785C23.5756 43.9785 23.5506 43.9785 23.5286 43.9785C20.8814 44.081 18.2342 43.6803 15.7217 42.8549C15.7217 42.8549 15.7218 36.7938 10.9631 30.076C6.62729 23.9547 -0.00795465 22.1834 -0.00795465 22.1834C-0.017353 19.668 0.421237 17.023 1.4018 14.2968C5.42742 3.09644 18.4817 -2.07596 28.8951 0.764793Z" fill="#064492"/>
        <path d="M14.1105 42.2019C13.957 40.8372 13.6437 38.7767 13.0359 37.2373C12.9263 36.9632 12.8261 36.8668 12.6412 36.8518C12.4595 36.8367 11.999 37.0566 11.8486 37.2102C11.7703 37.2886 10.6864 38.2827 9.20768 39.5328C10.702 40.5962 12.3436 41.5 14.1105 42.2019ZM8.04228 38.6351C9.80604 37.1831 11.2753 35.933 11.4288 35.7793C11.4915 35.7161 11.5541 35.6588 11.6137 35.6016C11.811 35.4178 11.9771 35.2582 12.0241 35.0684C12.0836 34.8244 11.9457 34.5834 11.7922 34.3153L11.7766 34.2912C11.6419 34.0532 11.5165 33.8242 11.3912 33.5953C10.8179 32.5469 10.276 31.5528 8.91322 29.9321C8.72838 29.7122 8.64377 29.6339 8.38688 29.5887C8.21145 29.5586 8.1206 29.6128 7.99529 29.6851C7.9389 29.7182 7.87311 29.7574 7.79166 29.7905C7.61935 29.8659 5.07554 31.1311 2.74162 32.3511C4.08871 34.737 5.88379 36.8698 8.04228 38.6351ZM2.14013 31.2094C1.00606 28.8898 0.285522 26.3684 0.0536957 23.7476C0.0724924 23.7385 0.0881471 23.7295 0.106944 23.7204C0.222857 23.6572 0.348177 23.5909 0.507949 23.609C0.752306 23.6361 0.880741 23.6813 1.1251 23.7867C3.19274 24.7085 5.45773 26.5009 6.78916 27.6969C7.03665 27.9198 7.19017 28.0765 7.13065 28.3657C7.07426 28.6307 6.94896 28.7061 6.64195 28.8898C6.61689 28.9049 6.58867 28.9199 6.56048 28.938C6.43517 29.0133 5.94333 29.2634 5.18832 29.6459C4.41453 30.0406 3.35879 30.5768 2.14013 31.2094Z" fill="#FF9033"/>
        <path d="M72.43 15.5597C72.737 15.635 73.2445 15.8067 73.9588 16.0748C74.6731 16.3429 75.403 16.7195 76.1548 17.1985C76.9067 17.6774 77.5615 18.2739 78.1222 18.9849C78.683 19.6958 78.9618 20.5453 78.9618 21.5274C78.9618 22.3889 78.8146 23.1752 78.5232 23.8861C78.2319 24.5971 77.8027 25.2267 77.245 25.7659C76.6843 26.3081 75.9982 26.7239 75.1806 27.0191C74.366 27.3143 73.4481 27.4619 72.43 27.4619C70.8761 27.4619 69.4319 27.1938 68.0942 26.6546C66.7565 26.1153 65.682 25.4556 64.8674 24.6724L68.0315 21.6208C68.6926 22.3829 69.3974 22.8709 70.1462 23.0938C70.8949 23.3138 71.5246 23.4252 72.0321 23.4252C72.8216 23.4252 73.4043 23.2776 73.7865 22.9824C74.1687 22.6872 74.3598 22.3317 74.3598 21.913C74.3598 21.6177 74.2313 21.3617 73.9776 21.1388C73.7238 20.9158 73.4231 20.7321 73.0816 20.5845C72.737 20.4369 72.3893 20.3194 72.0321 20.235C71.675 20.1507 71.3836 20.0693 71.1549 19.994C70.8479 19.8946 70.3341 19.7229 69.6073 19.4789C68.8805 19.2349 68.1443 18.8764 67.3924 18.4095C66.6406 17.9425 65.9858 17.3521 65.4251 16.6412C64.8643 15.9302 64.5855 15.0687 64.5855 14.0625C64.5855 13.0292 64.7703 12.1405 65.1431 11.3904C65.5159 10.6403 66.0078 10.0198 66.6218 9.52874C67.2358 9.03771 67.9376 8.67621 68.7302 8.44124C69.5227 8.20627 70.3404 8.0918 71.1831 8.0918C72.4832 8.0918 73.5891 8.23941 74.4945 8.53162C75.3998 8.82684 76.1454 9.14314 76.7344 9.48656C77.3986 9.90228 77.9593 10.3662 78.4198 10.8813L75.2056 13.9691C74.695 13.3305 74.1342 12.8635 73.5202 12.5713C72.9062 12.2761 72.2577 12.1285 71.5685 12.1285C71.0328 12.1285 70.5033 12.252 69.9801 12.496C69.457 12.74 69.1969 13.1347 69.1969 13.6769C69.1969 13.9721 69.3129 14.2252 69.5416 14.433C69.7702 14.6409 70.0522 14.8126 70.3811 14.9482C70.7101 15.0837 71.0609 15.2012 71.4306 15.2976C71.8003 15.394 72.123 15.4874 72.43 15.5597Z" fill="#064492"/>
        <path d="M99.9828 8.57666V26.9828H95.3776V25.576C94.6884 26.1423 93.9115 26.6032 93.0437 26.9587C92.1759 27.3142 91.2079 27.4949 90.1396 27.4949C88.8896 27.4949 87.7555 27.269 86.7374 26.8141C85.7192 26.3592 84.8452 25.7417 84.1184 24.9554C83.3916 24.1692 82.8308 23.2504 82.4361 22.196C82.0414 21.1416 81.844 20.012 81.844 18.81V8.57666H86.4492V18.8009C86.4492 19.9547 86.894 20.9579 87.7838 21.8164C88.6484 22.6509 89.6916 23.0666 90.9134 23.0666C92.1603 23.0666 93.216 22.6509 94.0807 21.8164C94.9453 20.982 95.3776 19.9788 95.3776 18.8009V8.57666H99.9828Z" fill="#064492"/>
        <path d="M133.012 8.57666L126.542 26.9828H121.68L117.623 15.1318L113.566 26.9828H108.742L102.273 8.57666H107.097L111.154 20.4668L115.211 8.57666H120.073L124.13 20.4668L128.187 8.57666H133.012Z" fill="#064492"/>
        <path d="M143.845 8.06445C145.252 8.06445 146.567 8.3175 147.792 8.82058C149.017 9.32366 150.092 10.0165 151.013 10.8992C151.934 11.7818 152.654 12.8121 153.178 13.99C153.701 15.1678 153.964 16.4331 153.964 17.7826C153.964 19.1081 153.701 20.3583 153.178 21.5362C152.654 22.714 151.931 23.7443 151.013 24.63C150.092 25.5126 149.02 26.2055 147.792 26.7086C146.564 27.2116 145.248 27.4617 143.845 27.4617C142.438 27.4617 141.123 27.2086 139.898 26.7086C138.67 26.2055 137.598 25.5126 136.677 24.63C135.756 23.7473 135.036 22.7171 134.512 21.5362C133.989 20.3583 133.726 19.1081 133.726 17.7826C133.726 16.4331 133.989 15.1678 134.512 13.99C135.036 12.8121 135.759 11.7818 136.677 10.8992C137.598 10.0165 138.67 9.32366 139.898 8.82058C141.126 8.3175 142.438 8.06445 143.845 8.06445ZM143.845 12.4928C142.313 12.4928 141.01 13.0079 139.938 14.0351C138.867 15.0654 138.331 16.3126 138.331 17.7826C138.331 19.2286 138.867 20.4637 139.938 21.494C140.449 22.0091 141.044 22.3947 141.718 22.6508C142.391 22.9068 143.102 23.0364 143.842 23.0364C144.581 23.0364 145.283 22.9068 145.947 22.6508C146.611 22.3947 147.21 22.0091 147.748 21.494C148.82 20.4668 149.356 19.2286 149.356 17.7826C149.356 16.3126 148.82 15.0654 147.748 14.0351C146.627 13.0079 145.327 12.4928 143.845 12.4928Z" fill="#064492"/>
        <path d="M164.058 8.58595C164.963 8.21843 165.99 8.03467 167.14 8.03467V12.4509C165.608 12.4509 164.308 12.9661 163.237 13.9963C162.165 15.0748 161.63 16.328 161.63 17.7499V26.9861H157.024V17.7499V8.5498H161.63V9.98674C162.344 9.4204 163.152 8.95347 164.058 8.58595Z" fill="#064492"/>
        <path d="M170.192 26.9831V1.22656H174.797V26.9831H170.192Z" fill="#064492"/>
        <path d="M198.033 1.16602V26.9828H193.427V17.7888C193.427 16.2946 192.892 15.0444 191.817 14.0383C190.743 13.008 189.455 12.4929 187.948 12.4929C186.416 12.4929 185.113 13.008 184.038 14.0352C182.964 15.0655 182.428 16.3127 182.428 17.7827C182.428 19.2287 182.964 20.4638 184.035 21.4941C184.546 22.0092 185.138 22.3948 185.815 22.6509C186.491 22.9069 187.199 23.0365 187.939 23.0365C188.678 23.0365 189.355 22.913 189.969 22.669L191.614 26.6153C190.439 27.1816 189.085 27.4648 187.557 27.4648C186.153 27.4648 184.856 27.2118 183.669 26.7117C182.481 26.2086 181.454 25.5157 180.583 24.6331C179.712 23.7504 179.035 22.7202 178.55 21.5393C178.064 20.3614 177.82 19.1112 177.82 17.7858C177.82 16.4362 178.064 15.1709 178.55 13.9931C179.035 12.8152 179.712 11.7849 180.58 10.9023C181.448 10.0196 182.478 9.32677 183.666 8.82369C184.853 8.32061 186.15 8.06756 187.557 8.06756C188.782 8.06756 189.881 8.25132 190.852 8.62186C191.823 8.99239 192.679 9.45932 193.421 10.0227V1.16903H198.033V1.16602Z" fill="#064492"/>
        <path d="M66.1864 40.9183V34.9626H63.7585V34.1372H69.5949V34.9626H67.167V40.9183H66.1864Z" fill="#042651"/>
        <path d="M69.2126 38.4784C69.2126 37.7554 69.4757 37.1499 70.002 36.6679C70.5284 36.1829 71.1706 35.9419 71.9318 35.9419C72.6962 35.9419 73.3447 36.1829 73.871 36.6619C74.3973 37.1409 74.6605 37.7464 74.6605 38.4784C74.6605 39.2074 74.3973 39.8159 73.871 40.3039C73.3447 40.792 72.7025 41.033 71.9412 41.033C71.1831 41.033 70.5377 40.7889 70.0083 40.3039C69.4788 39.8189 69.2126 39.2104 69.2126 38.4784ZM70.2025 38.4784C70.2025 38.9845 70.3717 39.4032 70.7069 39.7316C71.0421 40.0629 71.4556 40.2256 71.9412 40.2256C72.4205 40.2256 72.8309 40.0599 73.1693 39.7255C73.5076 39.3912 73.6799 38.9754 73.6799 38.4754C73.6799 37.9753 73.5107 37.5626 73.1693 37.2373C72.8309 36.9119 72.4205 36.7462 71.9412 36.7462C71.4556 36.7462 71.0421 36.9089 70.7069 37.2373C70.3686 37.5656 70.2025 37.9783 70.2025 38.4784Z" fill="#042651"/>
        <path d="M75.826 40.9183V36.0562H77.9155C78.4356 36.0562 78.846 36.1646 79.1499 36.3785C79.4537 36.5924 79.6041 36.9027 79.6041 37.3063C79.6041 37.5443 79.5414 37.7552 79.413 37.945C79.2877 38.1348 79.1091 38.2763 78.8836 38.3727V38.3818C79.1906 38.4511 79.4255 38.5926 79.5916 38.8035C79.7576 39.0144 79.8422 39.2584 79.8422 39.5325C79.8422 39.9754 79.673 40.3158 79.3378 40.5568C79.0026 40.7978 78.5515 40.9183 77.9845 40.9183H75.826ZM76.7971 38.1137H77.7463C78.0314 38.1137 78.2507 38.0474 78.3948 37.9179C78.5421 37.7853 78.6141 37.6046 78.6141 37.3756C78.6141 36.9268 78.3134 36.7038 77.715 36.7038H76.7971V38.1137ZM76.7971 40.2646H77.8372C78.1756 40.2646 78.4324 40.1983 78.6079 40.0627C78.7802 39.9272 78.8679 39.7434 78.8679 39.5054C78.8679 39.2614 78.777 39.0716 78.5985 38.9391C78.4199 38.8035 78.163 38.7372 77.8278 38.7372H76.7971V40.2646Z" fill="#042651"/>
        <path d="M80.6034 39.593C80.6034 39.2345 80.7068 38.9333 80.9136 38.6893C81.1203 38.4453 81.396 38.2705 81.7375 38.1651C82.0789 38.0597 82.3985 37.9874 82.693 37.9482C82.9875 37.909 83.2945 37.891 83.6234 37.891H83.8834V37.7946C83.8834 37.0836 83.5138 36.7281 82.7744 36.7281C82.2888 36.7281 81.8158 36.8848 81.3553 37.1981L80.9668 36.5173C81.1736 36.3516 81.4524 36.213 81.8064 36.1046C82.1604 35.9961 82.5081 35.9419 82.8559 35.9419C83.495 35.9419 83.9868 36.1046 84.3346 36.4329C84.6823 36.7583 84.8546 37.2312 84.8546 37.8458V40.9185H83.9461V40.4275L83.9774 40.0419H83.9586C83.8051 40.3311 83.5796 40.566 83.2851 40.7528C82.9875 40.9396 82.6616 41.0299 82.3014 41.0299C81.8409 41.0299 81.4461 40.8974 81.1109 40.6353C80.7694 40.3793 80.6034 40.0298 80.6034 39.593ZM81.5714 39.5177C81.5714 39.7286 81.656 39.9123 81.8221 40.066C81.9881 40.2196 82.2231 40.2979 82.5207 40.2979C82.9217 40.2979 83.2475 40.1383 83.5012 39.8189C83.755 39.4996 83.8803 39.1441 83.8803 38.7525V38.5688H83.6297C82.2575 38.5658 81.5714 38.8821 81.5714 39.5177Z" fill="#042651"/>
        <path d="M86.2801 42.8404V36.0564H87.1792V36.4902L87.1479 36.8547H87.1667C87.3264 36.5655 87.5551 36.3426 87.8559 36.1829C88.1566 36.0232 88.4918 35.9419 88.8646 35.9419C89.5444 35.9419 90.0833 36.1769 90.4843 36.6438C90.8853 37.1107 91.0826 37.7253 91.0826 38.4874C91.0826 39.2556 90.8696 39.8732 90.4436 40.3371C90.0175 40.801 89.4661 41.033 88.7957 41.033C88.1222 41.033 87.599 40.7588 87.2262 40.2075H87.2074C87.2324 40.322 87.2481 40.4636 87.2481 40.6293V42.8404H86.2801ZM87.2168 38.5085C87.2168 38.9694 87.3452 39.3731 87.6021 39.7135C87.859 40.0569 88.2067 40.2286 88.6453 40.2286C89.0589 40.2286 89.4035 40.072 89.6854 39.7617C89.9642 39.4514 90.1052 39.0297 90.1052 38.4995C90.1052 37.9753 89.9736 37.5536 89.7105 37.2373C89.4473 36.9209 89.1027 36.7613 88.6767 36.7613C88.2631 36.7613 87.9185 36.9089 87.6366 37.2041C87.3578 37.4963 87.2168 37.9301 87.2168 38.5085Z" fill="#042651"/>
        <path d="M92.2825 40.9183V36.0562H93.2506V37.8154H94.2405C94.8013 37.8154 95.2461 37.945 95.5782 38.204C95.9103 38.4631 96.0763 38.8547 96.0763 39.3819C96.0763 39.8549 95.9228 40.2314 95.6127 40.5056C95.3025 40.7797 94.842 40.9183 94.228 40.9183H92.2825ZM93.2537 40.2465H94.1027C94.4348 40.2465 94.6854 40.1682 94.8514 40.0115C95.0174 39.8549 95.102 39.641 95.102 39.3729C95.102 39.1048 95.0174 38.8879 94.8514 38.7282C94.6854 38.5685 94.4316 38.4872 94.0933 38.4872H93.2537V40.2465ZM96.8595 40.9183V36.0562H97.8275V40.9183H96.8595Z" fill="#042651"/>
        <path d="M101.825 40.9183V36.0562H102.755V38.9572C102.755 39.2976 102.746 39.5145 102.724 39.6109H102.743C102.777 39.5325 102.925 39.3156 103.194 38.9572L105.371 36.0562H106.311V40.9183H105.371V38.0173C105.371 37.9269 105.377 37.8004 105.387 37.6377C105.396 37.475 105.403 37.3877 105.403 37.3726H105.384C105.377 37.3846 105.23 37.5985 104.945 38.0173L102.758 40.9183H101.825Z" fill="#042651"/>
        <path d="M110.048 41.9274C110.236 42.069 110.428 42.1383 110.628 42.1383C111.035 42.1383 111.342 41.8973 111.546 41.4183L111.797 40.861L109.679 36.0562H110.769L112.038 39.2373L112.229 39.8247H112.248C112.301 39.6078 112.357 39.415 112.417 39.2494L113.645 36.0592H114.694L112.317 41.7949C112.169 42.1654 111.953 42.4486 111.662 42.6444C111.371 42.8402 111.045 42.9366 110.678 42.9366C110.512 42.9366 110.349 42.9095 110.189 42.8583C110.03 42.8071 109.911 42.7559 109.829 42.7047L109.71 42.6384L110.048 41.9274Z" fill="#042651"/>
        <path d="M115.136 38.4874C115.136 37.7644 115.39 37.1589 115.9 36.6709C116.411 36.1829 117.056 35.9419 117.843 35.9419C118.642 35.9419 119.274 36.1799 119.741 36.6528L119.281 37.3065C118.895 36.936 118.429 36.7492 117.88 36.7492C117.373 36.7492 116.953 36.9149 116.621 37.2433C116.289 37.5747 116.123 37.9843 116.123 38.4784C116.123 38.9785 116.292 39.3942 116.627 39.7286C116.962 40.0629 117.392 40.2286 117.912 40.2286C118.19 40.2286 118.472 40.1684 118.758 40.0509C119.039 39.9334 119.278 39.7737 119.472 39.5749L119.86 40.2557C119.628 40.4937 119.331 40.6805 118.971 40.8221C118.61 40.9637 118.234 41.033 117.843 41.033C117.05 41.033 116.402 40.792 115.894 40.313C115.39 39.834 115.136 39.2255 115.136 38.4874Z" fill="#042651"/>
        <path d="M120.362 40.9665V40.132C120.741 40.0748 121.026 39.8458 121.217 39.4452C121.408 39.0445 121.502 38.4149 121.502 37.5564V36.0562H124.889V40.9183H123.92V36.8243H122.432V37.5533C122.432 38.674 122.27 39.5145 121.947 40.0718C121.621 40.6321 121.095 40.9303 120.362 40.9665Z" fill="#042651"/>
        <path d="M126.135 41.9274C126.323 42.069 126.514 42.1383 126.715 42.1383C127.122 42.1383 127.429 41.8973 127.633 41.4183L127.883 40.861L125.766 36.0562H126.856L128.125 39.2373L128.316 39.8247H128.334C128.388 39.6078 128.444 39.415 128.504 39.2494L129.732 36.0592H130.781L128.403 41.7949C128.256 42.1654 128.04 42.4486 127.749 42.6444C127.46 42.8402 127.131 42.9366 126.765 42.9366C126.599 42.9366 126.436 42.9095 126.276 42.8583C126.116 42.8071 125.997 42.7559 125.916 42.7047L125.797 42.6384L126.135 41.9274Z" fill="#042651"/>
        <path d="M131.73 40.9183V36.0562H134.898V36.8545H132.698V40.9183H131.73Z" fill="#042651"/>
        <path d="M135.859 40.9183V36.0562H136.79V38.9572C136.79 39.2976 136.78 39.5145 136.758 39.6109H136.777C136.812 39.5325 136.959 39.3156 137.228 38.9572L139.406 36.0562H140.346V40.9183H139.406V38.0173C139.406 37.9269 139.412 37.8004 139.421 37.6377C139.431 37.475 139.437 37.3877 139.437 37.3726H139.418C139.412 37.3846 139.265 37.5985 138.98 38.0173L136.79 40.9183H135.859Z" fill="#042651"/>
        <path d="M144.002 38.4874C144.002 37.7644 144.255 37.1589 144.766 36.6709C145.277 36.1829 145.922 35.9419 146.708 35.9419C147.507 35.9419 148.14 36.1799 148.607 36.6528L148.146 37.3065C147.761 36.936 147.294 36.7492 146.746 36.7492C146.238 36.7492 145.819 36.9149 145.487 37.2433C145.154 37.5747 144.988 37.9843 144.988 38.4784C144.988 38.9785 145.158 39.3942 145.493 39.7286C145.828 40.0629 146.257 40.2286 146.777 40.2286C147.056 40.2286 147.338 40.1684 147.623 40.0509C147.905 39.9334 148.143 39.7737 148.337 39.5749L148.726 40.2557C148.494 40.4937 148.196 40.6805 147.836 40.8221C147.476 40.9637 147.1 41.033 146.708 41.033C145.916 41.033 145.267 40.792 144.76 40.313C144.255 39.834 144.002 39.2255 144.002 38.4874Z" fill="#042651"/>
        <path d="M152.275 40.9183V36.0562H153.243V38.0173H153.951L155.33 36.0562H156.429L154.741 38.3727V38.3908L156.63 40.9183H155.48L153.97 38.8156H153.24V40.9183H152.275Z" fill="#042651"/>
        <path d="M156.953 38.4874C156.953 37.7253 157.194 37.1107 157.673 36.6438C158.152 36.1769 158.76 35.9419 159.49 35.9419C160.176 35.9419 160.712 36.1588 161.1 36.5896C161.486 37.0234 161.68 37.5656 161.68 38.2193C161.68 38.3037 161.667 38.4332 161.639 38.614H157.961C157.986 39.12 158.165 39.5147 158.497 39.8009C158.826 40.087 159.227 40.2286 159.7 40.2286C160.251 40.2286 160.749 40.0388 161.188 39.6623L161.598 40.3431C161.357 40.554 161.06 40.7227 160.706 40.8462C160.348 40.9697 159.994 41.033 159.64 41.033C158.854 41.033 158.209 40.792 157.708 40.307C157.203 39.825 156.953 39.2195 156.953 38.4874ZM157.989 37.9422H160.696C160.684 37.5385 160.561 37.2252 160.333 36.9993C160.104 36.7763 159.816 36.6619 159.468 36.6619C159.089 36.6619 158.763 36.7763 158.494 37.0023C158.224 37.2312 158.058 37.5445 157.989 37.9422Z" fill="#042651"/>
        <path d="M162.845 40.9183V36.0562H163.776V40.1109H165.643V36.0562H166.583V40.1109H168.45V36.0562H169.38V40.9183H162.845Z" fill="#042651"/>
        <path d="M170.662 38.1228C170.662 37.2191 170.828 36.4961 171.16 35.9508C171.492 35.4056 172.087 34.9597 172.939 34.6163L174.747 33.8662L175.066 34.6344L173.127 35.4116C172.62 35.6345 172.244 35.8996 171.993 36.2039C171.742 36.5081 171.601 36.8907 171.567 37.3516H171.586C171.987 36.7762 172.582 36.4871 173.375 36.4871C174.014 36.4871 174.531 36.6919 174.929 37.0986C175.323 37.5053 175.524 38.0475 175.524 38.7283C175.524 39.4061 175.304 39.9604 174.863 40.3912C174.424 40.819 173.848 41.0359 173.133 41.0359C172.313 41.0359 171.695 40.7708 171.279 40.2436C170.868 39.7134 170.662 39.0085 170.662 38.1228ZM171.67 38.7283C171.67 39.1953 171.808 39.5658 172.081 39.8369C172.353 40.108 172.695 40.2466 173.099 40.2466C173.512 40.2466 173.857 40.111 174.133 39.8369C174.408 39.5658 174.546 39.2013 174.546 38.7464C174.546 38.2855 174.408 37.918 174.136 37.6408C173.863 37.3667 173.528 37.2281 173.137 37.2281C172.71 37.2281 172.36 37.3697 172.084 37.6559C171.808 37.9421 171.67 38.3006 171.67 38.7283Z" fill="#042651"/>
        <path d="M176.175 40.3039L176.554 39.6411C176.98 40.0568 177.51 40.2647 178.143 40.2647C178.61 40.2647 179.007 40.1321 179.336 39.867C179.665 39.602 179.863 39.2525 179.932 38.8247H177.513V38.153H179.932C179.866 37.7162 179.668 37.3667 179.343 37.1016C179.017 36.8365 178.625 36.704 178.174 36.704C177.613 36.704 177.128 36.8937 176.714 37.2703L176.276 36.6256C176.489 36.4027 176.771 36.231 177.121 36.1165C177.472 36.0021 177.833 35.9448 178.205 35.9448C178.985 35.9448 179.625 36.1858 180.129 36.6708C180.633 37.1558 180.884 37.7613 180.884 38.4904C180.884 39.2284 180.633 39.8369 180.129 40.3159C179.625 40.7949 178.979 41.0359 178.187 41.0359C177.372 41.0359 176.702 40.7919 176.175 40.3039Z" fill="#042651"/>
        <path d="M182.062 40.9183V36.0562H183.03V38.0173H183.738L185.116 36.0562H186.216L184.527 38.3727V38.3908L186.416 40.9183H185.267L183.756 38.8156H183.027V40.9183H182.062Z" fill="#042651"/>
        <path d="M186.736 38.4784C186.736 37.7554 186.999 37.1499 187.525 36.6679C188.052 36.1829 188.694 35.9419 189.455 35.9419C190.22 35.9419 190.868 36.1829 191.394 36.6619C191.921 37.1409 192.184 37.7464 192.184 38.4784C192.184 39.2074 191.921 39.8159 191.394 40.3039C190.868 40.792 190.226 41.033 189.465 41.033C188.703 41.033 188.061 40.7889 187.532 40.3039C187.002 39.8189 186.736 39.2104 186.736 38.4784ZM187.726 38.4784C187.726 38.9845 187.895 39.4032 188.23 39.7316C188.565 40.0629 188.979 40.2256 189.465 40.2256C189.944 40.2256 190.354 40.0599 190.693 39.7255C191.031 39.3912 191.203 38.9754 191.203 38.4754C191.203 37.9753 191.034 37.5626 190.693 37.2373C190.354 36.9119 189.944 36.7462 189.465 36.7462C188.979 36.7462 188.565 36.9089 188.23 37.2373C187.895 37.5656 187.726 37.9783 187.726 38.4784Z" fill="#042651"/>
        <path d="M193.143 40.9183L193.581 36.0562H194.659L195.946 38.8035L196.225 39.4572H196.244C196.344 39.2192 196.438 39.0023 196.523 38.8035L197.842 36.0562H198.901L199.339 40.9183H198.399L198.18 38.0263L198.189 37.1919H198.171C198.083 37.4148 197.976 37.6528 197.851 37.9028L196.651 40.3338H195.821L194.621 37.9118L194.302 37.1919H194.283L194.292 38.0263L194.073 40.9183H193.143Z" fill="#042651"/>
    </g>
    <defs>
        <clipPath id="clip0_9238_141819">
            <rect width="200" height="44" fill="white"/>
        </clipPath>
    </defs>
</svg>
