<svg width="56" height="56" viewBox="0 0 56 56" fill="none" xmlns="http://www.w3.org/2000/svg">
<g clip-path="url(#clip0_10107_146114)">
<path d="M5.6875 56H1.64062C0.734562 56 0 55.2654 0 54.3594V34.6719C0 33.7658 0.734562 33.0312 1.64062 33.0312H5.6875C6.59356 33.0312 7.32812 33.7658 7.32812 34.6719V54.3594C7.32812 55.2654 6.59356 56 5.6875 56Z" fill="#064492"/>
<path d="M53.9494 38.1513C52.6846 37.455 51.141 37.5025 49.9214 38.2751L43.9189 42.0767C43.7374 43.6254 43.0556 45.0625 41.9447 46.2001C40.5945 47.5824 38.7886 48.3438 36.8594 48.3438H28.7026C27.8192 48.3438 27.059 47.6649 27.0175 46.7824C26.9731 45.8403 27.7238 45.0625 28.6562 45.0625H36.8594C39.0008 45.0625 40.7374 43.2948 40.6864 41.142C40.637 39.0522 38.8779 37.4062 36.7875 37.4062H27.5625L26.4924 36.6037C24.3612 35.0052 21.7205 34.125 19.0564 34.125C16.8107 34.125 14.6058 34.7358 12.6801 35.8911L10.6094 37.1336V53.8125H38.1857C39.7802 53.8125 41.3403 53.3478 42.6748 52.4752L54.2072 44.9347C55.3298 44.2006 56 42.9616 56 41.6204C56 40.1766 55.2143 38.8474 53.9494 38.1513Z" fill="#064492"/>
<path d="M23.1875 0C15.6488 0 9.51562 6.1332 9.51562 13.6719C9.51562 21.2105 15.6488 27.3438 23.1875 27.3438C30.7262 27.3438 36.8594 21.2105 36.8594 13.6719C36.8594 6.1332 30.7262 0 23.1875 0Z" fill="#064492"/>
<path d="M24.2718 15.8432C26.8505 15.8432 28.9333 13.759 28.9333 11.1882C28.9333 8.62142 26.8422 6.5332 24.2718 6.5332H19.5792C19.3372 6.5332 19.1411 6.72909 19.1411 6.9707V13.0937H18.1714C17.9294 13.0937 17.7333 13.2896 17.7333 13.5312V15.4057C17.7333 15.6473 17.9294 15.8432 18.1714 15.8432H19.1411V16.8427H18.1714C17.9294 16.8427 17.7333 17.0385 17.7333 17.2802V19.1546C17.7333 19.3962 17.9294 19.5921 18.1714 19.5921H19.1411V21.029C19.1411 21.2707 19.3372 21.4665 19.5792 21.4665H21.4562C21.6982 21.4665 21.8943 21.2707 21.8943 21.029V19.5921H24.741C24.983 19.5921 25.1792 19.3962 25.1792 19.1546V17.2801C25.1792 17.0385 24.983 16.8426 24.741 16.8426H21.8943V15.8432H24.2718ZM21.8943 9.28266H24.2718C25.3239 9.28266 26.18 10.1375 26.18 11.1882C26.18 12.2389 25.3239 13.0937 24.2718 13.0937H21.8943V9.28266Z" fill="white"/>
<path d="M55.8452 22.0727C55.5751 21.4962 54.996 21.1279 54.3594 21.1279H51.9713C50.5214 15.401 47.2523 10.2184 42.6681 6.42212C40.5358 4.65615 38.1601 3.23001 35.6328 2.17334C38.429 5.19734 40.1407 9.23831 40.1407 13.672C40.1407 15.0357 39.9777 16.3618 39.6724 17.6331C40.434 18.7248 41.0783 19.897 41.5848 21.1279H40.1407C39.5041 21.1279 38.925 21.4962 38.6549 22.0727C38.3849 22.6492 38.4728 23.3299 38.8804 23.8189L45.9897 32.3501C46.3015 32.7242 46.7631 32.9404 47.2501 32.9404C47.737 32.9404 48.1988 32.7241 48.5104 32.3501L55.6198 23.8189C56.0273 23.3299 56.1152 22.6491 55.8452 22.0727Z" fill="#064492"/>
</g>
<defs>
<clipPath id="clip0_10107_146114">
<rect width="56" height="56" fill="white"/>
</clipPath>
</defs>
</svg>
