<svg width="62" height="62" viewBox="0 0 62 62" fill="none" xmlns="http://www.w3.org/2000/svg">
<circle cx="46" cy="16" r="16" fill="#FFDBBC"/>
<g clip-path="url(#clip0_9315_142048)">
<path d="M28.9848 42.6744C37.3747 42.6744 44.2003 35.7941 44.2003 27.3373C44.2003 18.8804 37.3747 12 28.9848 12C20.5949 12 13.769 18.8803 13.769 27.3372C13.769 35.794 20.5949 42.6744 28.9848 42.6744ZM33.22 33.5848C32.1648 33.5848 31.3836 32.7224 31.3379 31.7027C31.2923 30.6862 32.2355 29.8206 33.22 29.8206C34.2751 29.8206 35.0564 30.683 35.102 31.7027C35.1476 32.7192 34.2045 33.5848 33.22 33.5848ZM32.7658 18.2612C33.5114 18.5741 33.8621 19.4321 33.5492 20.1776L27.134 35.4635C26.8988 36.0239 26.3555 36.3613 25.7835 36.3613C25.5946 36.3613 25.4027 36.3245 25.2176 36.2468C24.472 35.9339 24.1214 35.0759 24.4343 34.3304L30.8494 19.0445C31.1624 18.299 32.0204 17.9484 32.7658 18.2612ZM24.5561 25.0158C23.5009 25.0158 22.7197 24.1534 22.674 23.1337C22.6285 22.1172 23.5716 21.2516 24.5561 21.2516C25.6112 21.2516 26.3926 22.114 26.4383 23.1337C26.4836 24.1501 25.5405 25.0158 24.5561 25.0158Z" fill="#064492"/>
<path d="M5.54907 47.5933H2.21092C1.40242 47.5933 0.746948 48.2488 0.746948 49.0573V60.5339C0.746948 61.3424 1.40242 61.9978 2.21092 61.9978H5.54907V47.5933Z" fill="#064492"/>
<path d="M48.8238 47.4913C46.0799 44.7474 41.6151 44.7473 38.8713 47.4913L34.4858 51.8767L32.6884 53.6742C31.9619 54.4006 30.9766 54.8087 29.9492 54.8087H21.2091C20.4197 54.8087 19.7404 54.2021 19.7032 53.4136C19.6636 52.5717 20.3344 51.8767 21.1676 51.8767H30.0516C31.8378 51.8767 33.3871 50.605 33.6941 48.8454C33.7647 48.4413 33.8015 48.0259 33.8015 47.6019C33.8016 46.7951 33.1423 46.1347 32.3354 46.1347H27.4675C25.8766 46.1347 24.3489 45.4131 22.7315 44.6489C21.0349 43.8475 19.2807 43.0188 17.2295 42.8824C15.4356 42.7628 13.6373 42.9593 11.8847 43.4653C10.0082 44.0072 8.65932 45.6743 8.49574 47.5992C8.48949 47.5987 8.48315 47.5986 8.47681 47.5982V61.993C8.47749 61.993 8.47817 61.993 8.47886 61.9929V62H33.6988C35.4329 62 37.0634 61.3246 38.2898 60.0983L48.8236 49.5645C49.3963 48.9922 49.3963 48.0638 48.8238 47.4913Z" fill="#064492"/>
</g>
<defs>
<clipPath id="clip0_9315_142048">
<rect width="50" height="50" fill="white" transform="translate(0 12)"/>
</clipPath>
</defs>
</svg>
