<svg width="56" height="56" viewBox="0 0 56 56" fill="none" xmlns="http://www.w3.org/2000/svg">
<path d="M8.20312 13.3438C10.6194 13.3438 12.5781 11.385 12.5781 8.96875C12.5781 6.5525 10.6194 4.59375 8.20312 4.59375C5.78688 4.59375 3.82812 6.5525 3.82812 8.96875C3.82812 11.385 5.78688 13.3438 8.20312 13.3438Z" fill="#064492"/>
<path d="M16.4062 22.6408V20.4533C16.4062 18.0231 15.343 15.8373 13.6584 14.334C12.2686 15.7469 10.3368 16.6252 8.20312 16.6252C6.06944 16.6252 4.13766 15.7469 2.74783 14.334C1.06323 15.8373 0 18.0231 0 20.4533V22.6408C0 23.5469 0.734562 24.2814 1.64062 24.2814H14.7656C15.6717 24.2814 16.4062 23.5469 16.4062 22.6408Z" fill="#064492"/>
<path d="M28 8.75C30.4162 8.75 32.375 6.79125 32.375 4.375C32.375 1.95875 30.4162 0 28 0C25.5838 0 23.625 1.95875 23.625 4.375C23.625 6.79125 25.5838 8.75 28 8.75Z" fill="#064492"/>
<path d="M21.4375 19.6877H34.5625C35.4686 19.6877 36.2031 18.9531 36.2031 18.047V15.8595C36.2031 13.4293 35.1399 11.2436 33.4553 9.74023C32.0655 11.1531 30.1337 12.0314 28 12.0314C25.8663 12.0314 23.9345 11.1531 22.5447 9.74023C20.8601 11.2436 19.7969 13.4293 19.7969 15.8595V18.047C19.7969 18.9531 20.5314 19.6877 21.4375 19.6877Z" fill="#064492"/>
<path d="M47.7969 13.3438C50.2131 13.3438 52.1719 11.385 52.1719 8.96875C52.1719 6.5525 50.2131 4.59375 47.7969 4.59375C45.3806 4.59375 43.4219 6.5525 43.4219 8.96875C43.4219 11.385 45.3806 13.3438 47.7969 13.3438Z" fill="#064492"/>
<path d="M53.2522 14.334C51.8623 15.7469 49.9306 16.6252 47.7969 16.6252C45.6632 16.6252 43.7314 15.7469 42.3416 14.334C40.657 15.8373 39.5938 18.0231 39.5938 20.4533V22.6408C39.5938 23.5469 40.3283 24.2814 41.2344 24.2814H54.3594C55.2654 24.2814 56 23.5469 56 22.6408V20.4533C56 18.0231 54.9368 15.8373 53.2522 14.334Z" fill="#064492"/>
<path d="M12.1406 28.1094V33.0312H20.8906V28.1094C20.8906 27.2033 20.1561 26.4688 19.25 26.4688H13.7812C12.8752 26.4688 12.1406 27.2033 12.1406 28.1094Z" fill="#064492"/>
<path d="M42.2188 26.4688H36.75C35.8439 26.4688 35.1094 27.2033 35.1094 28.1094V33.0312H43.8594V28.1094C43.8594 27.2033 43.1248 26.4688 42.2188 26.4688Z" fill="#064492"/>
<path d="M35.1094 40.1406C35.1094 44.067 31.9263 47.25 28 47.25C24.0735 47.25 20.8906 44.067 20.8906 40.1406V36.3125H12.1406V40.1406C12.1406 48.8995 19.2411 56 28 56C36.7589 56 43.8594 48.8995 43.8594 40.1406V36.3125H35.1094V40.1406Z" fill="#064492"/>
</svg>
