<svg width="62" height="62" viewBox="0 0 62 62" fill="none" xmlns="http://www.w3.org/2000/svg">
<circle cx="46" cy="16" r="16" fill="#FFDBBC"/>
<path d="M13.7591 33.6764H12.1715C10.005 33.6023 7.84555 33.9507 5.82711 34.7002C3.80867 35.4497 1.97434 36.5843 0.437956 38.0334L0 38.5175V52.8333H7.44526V44.7072L8.4489 43.6353L8.90511 43.1339C11.2809 40.8214 14.2386 39.1197 17.5 38.189C15.8671 37.0118 14.5793 35.4584 13.7591 33.6764Z" fill="#064492"/>
<path d="M49.5864 36.7294C47.9279 35.1599 45.9478 33.9311 43.7689 33.1194C41.59 32.3077 39.2589 31.9302 36.9202 32.0106C36.2029 32.0125 35.4863 32.05 34.7731 32.1229C33.8711 33.9335 32.5189 35.5081 30.8334 36.7107C34.5918 37.6991 37.9965 39.641 40.6826 42.3283L41.1751 42.8526L42.2388 44.0136V52.8333H50V37.2537L49.5864 36.7294Z" fill="#064492"/>
<path d="M12.3376 29.4266H12.9566C12.669 27.1588 13.1023 24.8629 14.2043 22.8162C15.3062 20.7695 17.0297 19.0594 19.1666 17.8924C18.392 16.8057 17.3233 15.9223 16.0652 15.3288C14.8071 14.7352 13.4028 14.452 11.9896 14.5067C10.5765 14.5613 9.20307 14.9521 8.00381 15.6407C6.80456 16.3293 5.82059 17.2922 5.14828 18.4349C4.47596 19.5777 4.13834 20.8612 4.16848 22.1598C4.19862 23.4584 4.59548 24.7276 5.32021 25.843C6.04493 26.9584 7.07267 27.8818 8.30279 28.5229C9.5329 29.164 10.9232 29.5006 12.3376 29.5V29.4266Z" fill="#064492"/>
<path d="M36.0248 28.1421C36.0461 28.5638 36.0461 28.9865 36.0248 29.4082C36.3614 29.4641 36.7014 29.4947 37.0421 29.5H37.3753C38.6122 29.431 39.8109 29.0281 40.8547 28.3305C41.8986 27.6329 42.752 26.6644 43.3319 25.5193C43.9118 24.3741 44.1985 23.0914 44.1639 21.796C44.1294 20.5006 43.7748 19.2366 43.1348 18.1271C42.4948 17.0175 41.591 16.1003 40.5116 15.4647C39.4322 14.8291 38.2139 14.4968 36.9753 14.5C35.7367 14.5033 34.52 14.842 33.4437 15.4833C32.3674 16.1246 31.4681 17.0466 30.8334 18.1594C32.4208 19.2438 33.7261 20.7235 34.6322 22.4659C35.5382 24.2082 36.0168 26.1586 36.0248 28.1421Z" fill="#064492"/>
<path d="M24.5833 37C28.9555 37 32.5 33.269 32.5 28.6667C32.5 24.0643 28.9555 20.3333 24.5833 20.3333C20.211 20.3333 16.6666 24.0643 16.6666 28.6667C16.6666 33.269 20.211 37 24.5833 37Z" fill="#064492"/>
<path d="M25.0272 41.1825C22.6565 41.0894 20.2909 41.4636 18.0729 42.2826C15.8548 43.1016 13.83 44.3484 12.1204 45.948L11.6666 46.4422V57.6147C11.6737 57.9786 11.7545 58.3376 11.9043 58.6712C12.0541 59.0048 12.27 59.3064 12.5397 59.5588C12.8095 59.8112 13.1277 60.0095 13.4762 60.1423C13.8248 60.2751 14.1968 60.3398 14.5711 60.3328H35.4288C35.8031 60.3398 36.1751 60.2751 36.5237 60.1423C36.8722 60.0095 37.1905 59.8112 37.4602 59.5588C37.7299 59.3064 37.9458 59.0048 38.0956 58.6712C38.2455 58.3376 38.3262 57.9786 38.3333 57.6147V46.4775L37.8976 45.948C36.1991 44.3435 34.1814 43.0931 31.9683 42.2737C29.7551 41.4542 27.3932 41.0829 25.0272 41.1825Z" fill="#064492"/>
</svg>
