<svg width="62" height="62" viewBox="0 0 62 62" fill="none" xmlns="http://www.w3.org/2000/svg">
<circle cx="46" cy="16" r="16" fill="#FFDBBC"/>
<path d="M39.0434 30.3757C39.6472 30.3757 40.23 30.4677 40.7785 30.638L45.7767 25.6398L43.4472 23.3104L36.3818 30.3757H39.0434Z" fill="#064492"/>
<path d="M49.1419 29.0052L47.8482 27.7114L43.3218 32.2378C44.3013 33.2856 44.9026 34.691 44.9026 36.2351V37.3876L49.1419 33.1484C50.2861 32.0043 50.2861 30.1493 49.1419 29.0052Z" fill="#064492"/>
<path d="M41.3756 21.2388L32.995 12.8581C31.8508 11.714 29.9958 11.714 28.8518 12.8581L11.3342 30.3757H32.2387L41.3756 21.2388Z" fill="#064492"/>
<path d="M7.68884 42.5921H12.1519V45.8864H7.68884V42.5921Z" fill="#064492"/>
<path d="M39.0434 33.3054H2.92969C1.31162 33.3054 0 34.617 0 36.2351V59.0703C0 60.6884 1.31162 62 2.92969 62H39.0434C40.6613 62 41.973 60.6884 41.973 59.0703V36.2351C41.973 34.617 40.6613 33.3054 39.0434 33.3054ZM4.75918 39.6625H15.0816V48.8162H4.75918V39.6625ZM10.4585 55.6428H4.66807V52.7131H10.4585V55.6428ZM19.4072 55.6428H13.6168V52.7131H19.4072V55.6428ZM28.3562 55.6428H22.5657V52.7131H28.3562V55.6428ZM37.305 55.6428H31.5146V52.7131H37.305V55.6428Z" fill="#064492"/>
</svg>
