<svg width="62" height="62" viewBox="0 0 62 62" fill="none" xmlns="http://www.w3.org/2000/svg">
<circle cx="46" cy="16" r="16" fill="#FFDBBC"/>
<path d="M5.54907 47.5933H2.21092C1.40242 47.5933 0.746948 48.2487 0.746948 49.0572V60.5338C0.746948 61.3423 1.40242 61.9978 2.21092 61.9978H5.54907V47.5933Z" fill="#064492"/>
<path d="M48.8238 47.4913C46.0799 44.7474 41.6151 44.7473 38.8713 47.4913L34.4858 51.8767L32.6884 53.6742C31.9619 54.4006 30.9766 54.8087 29.9492 54.8087H21.2091C20.4197 54.8087 19.7404 54.2021 19.7032 53.4136C19.6636 52.5717 20.3344 51.8767 21.1676 51.8767H30.0515C31.8378 51.8767 33.3871 50.605 33.6941 48.8454C33.7647 48.4413 33.8015 48.0259 33.8015 47.6019C33.8016 46.7951 33.1423 46.1347 32.3354 46.1347H27.4675C25.8766 46.1347 24.3489 45.4131 22.7315 44.6489C21.0349 43.8475 19.2807 43.0188 17.2295 42.8824C15.4356 42.7628 13.6373 42.9593 11.8847 43.4653C10.0082 44.0072 8.65932 45.6743 8.49574 47.5992C8.48949 47.5987 8.48315 47.5986 8.47681 47.5982V61.993C8.47749 61.993 8.47817 61.993 8.47886 61.9929V62H33.6988C35.4329 62 37.0634 61.3246 38.2898 60.0983L48.8236 49.5645C49.3963 48.9922 49.3963 48.0638 48.8238 47.4913Z" fill="#064492"/>
<path d="M16.5322 38.4647H34.1103C34.9201 38.4647 35.5751 37.8094 35.5751 36.9999V19.3242C35.5751 18.5147 34.9201 17.8594 34.1103 17.8594H29.7158V16.3945C29.7158 13.9714 27.7443 12 25.3212 12C22.8982 12 20.9267 13.9714 20.9267 16.3945V17.8594H16.5322C15.7227 17.8594 15.0674 18.5147 15.0674 19.3242V36.9999C15.0674 37.8094 15.7227 38.4647 16.5322 38.4647ZM23.8564 16.3945C23.8564 15.5862 24.5144 14.9297 25.3212 14.9297C26.1281 14.9297 26.7861 15.5862 26.7861 16.3945V17.8594H23.8564V16.3945Z" fill="#064492"/>
</svg>
