<svg width="24" height="24" viewBox="0 0 24 24" fill="#064492" xmlns="http://www.w3.org/2000/svg">
    <path d="M23.5338 19.0838L20.8731 17.3099L18.5079 15.7334C18.0514 15.4297 17.438 15.5293 17.101 15.9618L15.6375 17.8433C15.3231 18.2516 14.7575 18.3689 14.3067 18.1193C13.3136 17.5669 12.1393 17.0468 9.54814 14.4523C6.95701 11.8579 6.43356 10.6869 5.88115 9.69377C5.63154 9.24294 5.74887 8.6774 6.15714 8.36306L8.03864 6.8995C8.47115 6.56256 8.57076 5.94912 8.26706 5.49261L6.73895 3.20021L4.91661 0.466683C4.60644 0.0014072 3.98554 -0.138279 3.50602 0.149296L1.40436 1.41012C0.836378 1.74476 0.418867 2.28513 0.238306 2.9192C-0.336421 5.01463 -0.452295 9.63706 6.95574 17.0451C14.3638 24.4531 18.9858 24.3369 21.0812 23.7621C21.7153 23.5816 22.2557 23.1641 22.5903 22.5961L23.8511 20.4944C24.1388 20.0149 23.9991 19.394 23.5338 19.0838Z"/>
</svg>
