<svg width="62" height="62" viewBox="0 0 62 62" fill="none" xmlns="http://www.w3.org/2000/svg">
<circle cx="46" cy="16" r="16" fill="#FFDBBC"/>
<path d="M21.875 27.6241V24.4991H3.125C1.40313 24.4991 0 25.9022 0 27.6241V33.8741H22.5344C22.1 31.9647 21.875 29.9084 21.875 27.6241Z" fill="#064492"/>
<path d="M49.8719 40.1241C47.7406 43.4084 44.4906 46.2022 39.8344 48.8772C39.1187 49.2866 38.3125 49.4991 37.5 49.4991C36.6875 49.4991 35.8812 49.2866 35.175 48.8834C30.5187 46.2022 27.2688 43.4053 25.1344 40.1241H0V55.7491C0 57.4741 1.40313 58.8741 3.125 58.8741H46.875C48.6 58.8741 50 57.4741 50 55.7491V40.1241H49.8719ZM14.0625 49.4991H7.8125C6.95 49.4991 6.25 48.7991 6.25 47.9366C6.25 47.0741 6.95 46.3741 7.8125 46.3741H14.0625C14.925 46.3741 15.625 47.0741 15.625 47.9366C15.625 48.7991 14.925 49.4991 14.0625 49.4991Z" fill="#064492"/>
<path d="M49.0531 19.94L38.1156 15.2525C37.7187 15.0838 37.2781 15.0838 36.8813 15.2525L25.9438 19.94C25.3719 20.1838 25 20.7494 25 21.3744V27.6244C25 36.2213 28.1781 41.2463 36.7219 46.1681C36.9625 46.3056 37.2312 46.3744 37.5 46.3744C37.7688 46.3744 38.0375 46.3056 38.2781 46.1681C46.8219 41.2588 50 36.2338 50 27.6244V21.3744C50 20.7494 49.6281 20.1838 49.0531 19.94ZM43.4094 27.04L37.1594 34.8525C36.8594 35.2213 36.4094 35.4369 35.9375 35.4369C35.9156 35.4369 35.8906 35.4369 35.8719 35.4369C35.375 35.415 34.9156 35.1588 34.6375 34.7431L31.5125 30.0556C31.0344 29.3369 31.2281 28.3681 31.9469 27.89C32.6594 27.415 33.6313 27.6025 34.1125 28.3244L36.0531 31.2338L40.9656 25.09C41.5063 24.4181 42.4906 24.3119 43.1625 24.8463C43.8375 25.3806 43.9437 26.365 43.4094 27.04Z" fill="#064492"/>
</svg>
