<svg width="200" height="44" viewBox="0 0 200 44" fill="none" xmlns="http://www.w3.org/2000/svg">
    <g clip-path="url(#clip0_9238_141891)">
        <path d="M34.8866 3.42821C35.3627 3.55775 35.3784 3.62703 35.6165 3.7897C38.577 5.80504 41.2242 8.02523 43.3137 12.1433C46.6314 18.6773 45.6226 24.2684 45.5725 24.6992C45.5223 25.13 45.4722 25.2896 45.1527 25.3649C44.8331 25.4403 44.5669 24.9914 44.3852 24.7594C43.3482 23.446 41.5625 20.7167 38.6898 17.7796C35.9204 14.9479 32.2143 11.8149 28.6241 11.598C24.4137 11.345 22.9068 15.2099 19.2602 16.1679C16.0335 17.0144 14.4702 14.987 14.3386 14.8424C14.207 14.6978 14.1068 14.5171 14.1288 14.3785C14.1507 14.2399 14.3888 14.1435 14.7647 13.8935C16.9639 12.4325 17.5215 11.5739 19.3667 9.32359C21.118 7.18776 22.5779 4.88624 23.7746 4.31689C24.9682 3.74753 26.3435 3.36495 28.9343 3.22638C30.792 3.12696 31.7663 3.19926 33.5207 3.30169C34.235 3.34687 34.473 3.31675 34.8866 3.42821Z" fill="#FF9033"/>
        <path d="M28.8951 0.764671C28.9295 0.773708 28.9703 0.782745 29.0173 0.794795C29.3494 0.873119 29.8851 1.00266 29.8161 1.47863C29.7754 1.74975 29.4621 1.9305 29.0924 1.9305C28.6445 1.9305 27.6357 2.01183 26.5894 2.18655C24.9384 2.4637 23.7448 2.77097 22.8425 3.35238C21.7147 4.07838 20.8532 5.06646 18.2342 8.61514C16.0256 11.6095 14.124 12.7211 13.4411 13.1218C13.3753 13.1609 13.3189 13.1941 13.2782 13.2182C13.2124 13.2604 13.1497 13.2935 13.0902 13.3266C12.9116 13.426 12.7581 13.5134 12.589 13.7183C12.354 14.0014 12.4511 14.2454 12.5514 14.4533C12.5576 14.4684 12.567 14.4894 12.5796 14.5135C12.7205 14.8178 13.1654 15.7818 14.2587 16.5801C15.4366 17.4417 16.5864 17.7037 17.827 17.6766C20.8219 17.6134 22.8238 15.9113 24.1364 14.7937C24.2617 14.6883 24.3776 14.5889 24.4904 14.4955C25.7842 13.42 27.3475 12.6006 29.4527 13.0585C31.5579 13.5164 34.0109 14.9835 37.0059 17.9538C40.0008 20.9271 44.559 27.2683 44.6467 27.4189C44.6749 27.4701 44.7156 27.5153 44.7532 27.5635C44.8347 27.6569 44.9193 27.7563 44.9287 27.9069C44.9443 28.1299 44.9224 28.2534 44.8566 28.4914C44.3021 30.4977 42.9331 32.8263 41.9901 34.215C41.8147 34.4741 41.6863 34.6398 41.398 34.6308C41.1318 34.6247 41.0378 34.5223 40.8059 34.2783C40.7871 34.2572 40.7652 34.2361 40.7464 34.215C40.6524 34.1156 40.3298 33.715 39.8317 33.1004C38.8636 31.9045 37.2408 29.9012 35.3925 27.7352C32.5918 24.4577 29.5968 21.6169 29.2773 21.3669C28.9577 21.1169 28.5756 20.9421 28.2435 21.3187C27.9114 21.6922 28.2591 22.1441 28.469 22.3339C28.6852 22.5297 33.0554 27.1327 34.6845 28.898C36.3135 30.6633 39.9664 35.2453 40.1167 35.4622C40.1637 35.5285 40.2107 35.5827 40.2546 35.6279C40.3454 35.7273 40.4143 35.8026 40.4143 35.9623C40.4143 36.1972 40.3517 36.2876 40.1668 36.4894C38.8166 37.9806 37.9394 38.6283 37.0153 39.3151C36.8148 39.4627 36.6143 39.6134 36.4044 39.773L36.3824 39.7911C36.1475 39.9718 35.9344 40.1345 35.687 40.1225C35.4927 40.1104 35.311 39.9869 35.1012 39.8423C35.0385 39.7971 34.9696 39.7519 34.8975 39.7067C34.5936 39.5109 30.4772 36.3448 27.8644 34.1367C25.6527 32.269 22.9773 29.368 22.1063 28.4251C21.9466 28.2534 21.8495 28.1479 21.8244 28.1208C21.8087 28.1058 21.7931 28.0907 21.7743 28.0696C21.5926 27.8859 21.2574 27.5424 20.8532 27.9732C20.4679 28.3859 20.6841 28.648 20.8251 28.8257C20.847 28.8529 20.8658 28.877 20.8814 28.898C21.0036 29.0728 23.8544 32.0792 26.5392 34.6609C29.224 37.2456 33.4063 40.2038 33.5786 40.3153C33.7509 40.4267 34.0423 40.8003 34.0548 40.969C34.0705 41.1347 33.9921 41.2431 33.7446 41.3847C32.1124 42.3216 29.719 43.0084 28.4972 43.3277C28.4596 43.3368 28.4158 43.3518 28.3719 43.3669C28.2215 43.4151 28.0336 43.4753 27.8675 43.4543C27.6952 43.4332 27.3663 43.2825 27.2222 43.2102C26.0129 42.6469 24.2774 41.7793 21.0663 39.3001C18.6415 37.3872 16.8589 35.0796 16.2982 34.3536C16.2042 34.2331 16.1478 34.1578 16.1227 34.1337C16.1165 34.1277 16.1133 34.1216 16.1071 34.1156C15.9473 33.9469 15.681 33.6668 15.2111 34.0072C14.76 34.3355 15.067 34.7754 15.2455 35.0284L15.255 35.0435C15.2644 35.0555 15.2737 35.0706 15.2831 35.0826C15.4492 35.3266 16.8308 37.1462 19.03 39.1735C20.7906 40.7973 23.0054 42.2613 23.892 42.7915L23.8983 42.7945C24.0205 42.8668 24.6502 43.2434 24.4497 43.644C24.2774 43.9905 23.8231 43.9814 23.6101 43.9784C23.5756 43.9784 23.5506 43.9784 23.5286 43.9784C20.8814 44.0808 18.2342 43.6802 15.7217 42.8548C15.7217 42.8548 15.7218 36.7937 10.9631 30.0759C6.62729 23.9546 -0.00795465 22.1833 -0.00795465 22.1833C-0.017353 19.6679 0.421237 17.0229 1.4018 14.2966C5.42742 3.09632 18.4817 -2.07608 28.8951 0.764671Z" fill="white"/>
        <path d="M14.1105 42.2015C13.957 40.8369 13.6437 38.7763 13.0359 37.237C12.9263 36.9628 12.8261 36.8664 12.6412 36.8514C12.4595 36.8363 11.999 37.0562 11.8486 37.2099C11.7703 37.2882 10.6864 38.2823 9.20768 39.5325C10.702 40.5959 12.3436 41.4996 14.1105 42.2015ZM8.04228 38.6348C9.80604 37.1828 11.2753 35.9326 11.4288 35.7789C11.4915 35.7157 11.5541 35.6585 11.6137 35.6012C11.811 35.4175 11.9771 35.2578 12.0241 35.068C12.0836 34.824 11.9457 34.583 11.7922 34.3149L11.7766 34.2908C11.6419 34.0528 11.5165 33.8239 11.3912 33.5949C10.8179 32.5466 10.276 31.5525 8.91322 29.9318C8.72838 29.7119 8.64377 29.6335 8.38688 29.5883C8.21145 29.5582 8.1206 29.6124 7.99529 29.6847C7.9389 29.7179 7.87311 29.757 7.79166 29.7902C7.61935 29.8655 5.07554 31.1307 2.74162 32.3508C4.08871 34.7366 5.88379 36.8695 8.04228 38.6348ZM2.14013 31.209C1.00606 28.8895 0.285522 26.368 0.0536957 23.7472C0.0724924 23.7381 0.0881471 23.7291 0.106944 23.7201C0.222857 23.6568 0.348177 23.5905 0.507949 23.6086C0.752306 23.6357 0.880741 23.6809 1.1251 23.7863C3.19274 24.7082 5.45773 26.5006 6.78916 27.6965C7.03665 27.9194 7.19017 28.0761 7.13065 28.3653C7.07426 28.6304 6.94896 28.7057 6.64195 28.8895C6.61689 28.9045 6.58867 28.9196 6.56048 28.9377C6.43517 29.013 5.94333 29.263 5.18832 29.6456C4.41453 30.0402 3.35879 30.5764 2.14013 31.209Z" fill="#FF9033"/>
        <path d="M72.43 15.5593C72.737 15.6346 73.2445 15.8063 73.9588 16.0744C74.6731 16.3426 75.403 16.7191 76.1548 17.1981C76.9067 17.6771 77.5615 18.2735 78.1222 18.9845C78.683 19.6954 78.9618 20.5449 78.9618 21.527C78.9618 22.3886 78.8146 23.1748 78.5232 23.8858C78.2319 24.5967 77.8027 25.2263 77.245 25.7655C76.6843 26.3078 75.9982 26.7235 75.1806 27.0187C74.366 27.3139 73.4481 27.4615 72.43 27.4615C70.8761 27.4615 69.4319 27.1934 68.0942 26.6542C66.7565 26.115 65.682 25.4552 64.8674 24.672L68.0315 21.6204C68.6926 22.3825 69.3974 22.8706 70.1462 23.0935C70.8949 23.3134 71.5246 23.4249 72.0321 23.4249C72.8216 23.4249 73.4043 23.2772 73.7865 22.982C74.1687 22.6868 74.3598 22.3313 74.3598 21.9126C74.3598 21.6174 74.2313 21.3613 73.9776 21.1384C73.7238 20.9155 73.4231 20.7317 73.0816 20.5841C72.737 20.4365 72.3893 20.319 72.0321 20.2347C71.675 20.1503 71.3836 20.069 71.1549 19.9937C70.8479 19.8942 70.3341 19.7225 69.6073 19.4785C68.8805 19.2345 68.1443 18.876 67.3924 18.4091C66.6406 17.9422 65.9858 17.3517 65.4251 16.6408C64.8643 15.9298 64.5855 15.0683 64.5855 14.0621C64.5855 13.0289 64.7703 12.1402 65.1431 11.3901C65.5159 10.64 66.0078 10.0194 66.6218 9.52837C67.2358 9.03734 67.9376 8.67585 68.7302 8.44088C69.5227 8.2059 70.3404 8.09143 71.1831 8.09143C72.4832 8.09143 73.5891 8.23904 74.4945 8.53125C75.3998 8.82647 76.1454 9.14278 76.7344 9.4862C77.3986 9.90192 77.9593 10.3658 78.4198 10.881L75.2056 13.9687C74.695 13.3301 74.1342 12.8632 73.5202 12.571C72.9062 12.2757 72.2577 12.1281 71.5685 12.1281C71.0328 12.1281 70.5033 12.2516 69.9801 12.4956C69.457 12.7397 69.1969 13.1343 69.1969 13.6765C69.1969 13.9718 69.3129 14.2248 69.5416 14.4327C69.7702 14.6405 70.0522 14.8122 70.3811 14.9478C70.7101 15.0833 71.0609 15.2008 71.4306 15.2972C71.8003 15.3936 72.123 15.487 72.43 15.5593Z" fill="white"/>
        <path d="M99.9828 8.57642V26.9825H95.3776V25.5757C94.6884 26.1421 93.9115 26.603 93.0437 26.9584C92.1759 27.3139 91.2079 27.4947 90.1396 27.4947C88.8896 27.4947 87.7555 27.2687 86.7374 26.8139C85.7192 26.359 84.8452 25.7414 84.1184 24.9552C83.3916 24.1689 82.8308 23.2501 82.4361 22.1957C82.0414 21.1414 81.844 20.0117 81.844 18.8097V8.57642H86.4492V18.8007C86.4492 19.9545 86.894 20.9576 87.7838 21.8162C88.6484 22.6506 89.6916 23.0663 90.9134 23.0663C92.1603 23.0663 93.216 22.6506 94.0807 21.8162C94.9453 20.9817 95.3776 19.9786 95.3776 18.8007V8.57642H99.9828Z" fill="white"/>
        <path d="M133.012 8.57642L126.542 26.9825H121.68L117.623 15.1315L113.566 26.9825H108.742L102.273 8.57642H107.097L111.154 20.4666L115.211 8.57642H120.073L124.13 20.4666L128.187 8.57642H133.012Z" fill="white"/>
        <path d="M143.845 8.06433C145.252 8.06433 146.567 8.31738 147.792 8.82046C149.017 9.32354 150.092 10.0164 151.013 10.8991C151.934 11.7817 152.654 12.812 153.178 13.9898C153.701 15.1677 153.964 16.4329 153.964 17.7825C153.964 19.108 153.701 20.3582 153.178 21.536C152.654 22.7139 151.931 23.7442 151.013 24.6298C150.092 25.5125 149.02 26.2054 147.792 26.7084C146.564 27.2115 145.248 27.4616 143.845 27.4616C142.438 27.4616 141.123 27.2085 139.898 26.7084C138.67 26.2054 137.598 25.5125 136.677 24.6298C135.756 23.7472 135.036 22.7169 134.512 21.536C133.989 20.3582 133.726 19.108 133.726 17.7825C133.726 16.4329 133.989 15.1677 134.512 13.9898C135.036 12.812 135.759 11.7817 136.677 10.8991C137.598 10.0164 138.67 9.32354 139.898 8.82046C141.126 8.31738 142.438 8.06433 143.845 8.06433ZM143.845 12.4926C142.313 12.4926 141.01 13.0078 139.938 14.035C138.867 15.0653 138.331 16.3124 138.331 17.7825C138.331 19.2285 138.867 20.4636 139.938 21.4939C140.449 22.009 141.044 22.3946 141.718 22.6507C142.391 22.9067 143.102 23.0363 143.842 23.0363C144.581 23.0363 145.283 22.9067 145.947 22.6507C146.611 22.3946 147.21 22.009 147.748 21.4939C148.82 20.4666 149.356 19.2285 149.356 17.7825C149.356 16.3124 148.82 15.0653 147.748 14.035C146.627 13.0078 145.327 12.4926 143.845 12.4926Z" fill="white"/>
        <path d="M164.058 8.58546C164.963 8.21794 165.99 8.03418 167.14 8.03418V12.4504C165.608 12.4504 164.308 12.9656 163.237 13.9958C162.165 15.0743 161.63 16.3275 161.63 17.7494V26.9856H157.024V17.7494V8.54931H161.63V9.98625C162.344 9.41991 163.152 8.95298 164.058 8.58546Z" fill="white"/>
        <path d="M170.192 26.9829V1.22632H174.797V26.9829H170.192Z" fill="white"/>
        <path d="M198.033 1.16577V26.9826H193.427V17.7885C193.427 16.2944 192.892 15.0442 191.817 14.038C190.743 13.0078 189.455 12.4926 187.948 12.4926C186.416 12.4926 185.113 13.0078 184.038 14.035C182.964 15.0653 182.428 16.3124 182.428 17.7825C182.428 19.2285 182.964 20.4636 184.035 21.4939C184.546 22.009 185.138 22.3946 185.815 22.6506C186.491 22.9067 187.199 23.0362 187.939 23.0362C188.678 23.0362 189.355 22.9127 189.969 22.6687L191.614 26.615C190.439 27.1814 189.085 27.4646 187.557 27.4646C186.153 27.4646 184.856 27.2115 183.669 26.7114C182.481 26.2084 181.454 25.5155 180.583 24.6328C179.712 23.7502 179.035 22.7199 178.55 21.539C178.064 20.3612 177.82 19.111 177.82 17.7855C177.82 16.4359 178.064 15.1707 178.55 13.9928C179.035 12.815 179.712 11.7847 180.58 10.902C181.448 10.0194 182.478 9.32653 183.666 8.82345C184.853 8.32036 186.15 8.06732 187.557 8.06732C188.782 8.06732 189.881 8.25108 190.852 8.62161C191.823 8.99215 192.679 9.45908 193.421 10.0224V1.16878H198.033V1.16577Z" fill="white"/>
        <path d="M66.1864 40.9183V34.9626H63.7585V34.1372H69.5949V34.9626H67.167V40.9183H66.1864Z" fill="white"/>
        <path d="M69.2126 38.4781C69.2126 37.7552 69.4757 37.1496 70.002 36.6677C70.5284 36.1826 71.1706 35.9417 71.9318 35.9417C72.6962 35.9417 73.3447 36.1826 73.871 36.6616C74.3973 37.1406 74.6605 37.7461 74.6605 38.4781C74.6605 39.2072 74.3973 39.8157 73.871 40.3037C73.3447 40.7917 72.7025 41.0327 71.9412 41.0327C71.1831 41.0327 70.5377 40.7887 70.0083 40.3037C69.4788 39.8187 69.2126 39.2102 69.2126 38.4781ZM70.2025 38.4781C70.2025 38.9842 70.3717 39.403 70.7069 39.7313C71.0421 40.0627 71.4556 40.2254 71.9412 40.2254C72.4205 40.2254 72.8309 40.0597 73.1693 39.7253C73.5076 39.3909 73.6799 38.9752 73.6799 38.4751C73.6799 37.9751 73.5107 37.5624 73.1693 37.237C72.8309 36.9117 72.4205 36.746 71.9412 36.746C71.4556 36.746 71.0421 36.9087 70.7069 37.237C70.3686 37.5654 70.2025 37.9781 70.2025 38.4781Z" fill="white"/>
        <path d="M75.826 40.9183V36.0562H77.9155C78.4356 36.0562 78.846 36.1646 79.1499 36.3785C79.4537 36.5924 79.6041 36.9027 79.6041 37.3063C79.6041 37.5443 79.5414 37.7552 79.413 37.945C79.2877 38.1348 79.1091 38.2763 78.8836 38.3727V38.3818C79.1906 38.4511 79.4255 38.5926 79.5916 38.8035C79.7576 39.0144 79.8422 39.2584 79.8422 39.5325C79.8422 39.9754 79.673 40.3158 79.3378 40.5568C79.0026 40.7978 78.5515 40.9183 77.9845 40.9183H75.826ZM76.7971 38.1137H77.7463C78.0314 38.1137 78.2507 38.0474 78.3948 37.9179C78.5421 37.7853 78.6141 37.6046 78.6141 37.3756C78.6141 36.9268 78.3134 36.7038 77.715 36.7038H76.7971V38.1137ZM76.7971 40.2646H77.8372C78.1756 40.2646 78.4324 40.1983 78.6079 40.0627C78.7802 39.9272 78.8679 39.7434 78.8679 39.5054C78.8679 39.2614 78.777 39.0716 78.5985 38.9391C78.4199 38.8035 78.163 38.7372 77.8278 38.7372H76.7971V40.2646Z" fill="white"/>
        <path d="M80.6034 39.5928C80.6034 39.2343 80.7068 38.933 80.9136 38.689C81.1203 38.445 81.396 38.2703 81.7375 38.1648C82.0789 38.0594 82.3985 37.9871 82.693 37.948C82.9875 37.9088 83.2945 37.8907 83.6234 37.8907H83.8834V37.7943C83.8834 37.0834 83.5138 36.7279 82.7744 36.7279C82.2888 36.7279 81.8158 36.8846 81.3553 37.1978L80.9668 36.517C81.1736 36.3513 81.4524 36.2128 81.8064 36.1043C82.1604 35.9959 82.5081 35.9417 82.8559 35.9417C83.495 35.9417 83.9868 36.1043 84.3346 36.4327C84.6823 36.758 84.8546 37.231 84.8546 37.8455V40.9182H83.9461V40.4272L83.9774 40.0416H83.9586C83.8051 40.3308 83.5796 40.5658 83.2851 40.7526C82.9875 40.9393 82.6616 41.0297 82.3014 41.0297C81.8409 41.0297 81.4461 40.8972 81.1109 40.6351C80.7694 40.379 80.6034 40.0296 80.6034 39.5928ZM81.5714 39.5174C81.5714 39.7283 81.656 39.9121 81.8221 40.0657C81.9881 40.2193 82.2231 40.2977 82.5207 40.2977C82.9217 40.2977 83.2475 40.138 83.5012 39.8187C83.755 39.4994 83.8803 39.1439 83.8803 38.7523V38.5685H83.6297C82.2575 38.5655 81.5714 38.8818 81.5714 39.5174Z" fill="white"/>
        <path d="M86.2801 42.8402V36.0561H87.1792V36.4899L87.1479 36.8544H87.1667C87.3264 36.5652 87.5551 36.3423 87.8559 36.1826C88.1566 36.023 88.4918 35.9417 88.8646 35.9417C89.5444 35.9417 90.0833 36.1766 90.4843 36.6436C90.8853 37.1105 91.0826 37.725 91.0826 38.4872C91.0826 39.2554 90.8696 39.8729 90.4436 40.3368C90.0175 40.8008 89.4661 41.0327 88.7957 41.0327C88.1222 41.0327 87.599 40.7586 87.2262 40.2073H87.2074C87.2324 40.3218 87.2481 40.4634 87.2481 40.629V42.8402H86.2801ZM87.2168 38.5083C87.2168 38.9692 87.3452 39.3728 87.6021 39.7133C87.859 40.0567 88.2067 40.2284 88.6453 40.2284C89.0589 40.2284 89.4035 40.0717 89.6854 39.7615C89.9642 39.4512 90.1052 39.0294 90.1052 38.4992C90.1052 37.9751 89.9736 37.5533 89.7105 37.237C89.4473 36.9207 89.1027 36.761 88.6767 36.761C88.2631 36.761 87.9185 36.9087 87.6366 37.2039C87.3578 37.4961 87.2168 37.9299 87.2168 38.5083Z" fill="white"/>
        <path d="M92.2825 40.9183V36.0562H93.2506V37.8154H94.2405C94.8013 37.8154 95.2461 37.945 95.5782 38.204C95.9103 38.4631 96.0763 38.8547 96.0763 39.3819C96.0763 39.8549 95.9228 40.2314 95.6127 40.5056C95.3025 40.7797 94.842 40.9183 94.228 40.9183H92.2825ZM93.2537 40.2465H94.1027C94.4348 40.2465 94.6854 40.1682 94.8514 40.0115C95.0174 39.8549 95.102 39.641 95.102 39.3729C95.102 39.1048 95.0174 38.8879 94.8514 38.7282C94.6854 38.5685 94.4316 38.4872 94.0933 38.4872H93.2537V40.2465ZM96.8595 40.9183V36.0562H97.8275V40.9183H96.8595Z" fill="white"/>
        <path d="M101.825 40.9183V36.0562H102.755V38.9572C102.755 39.2976 102.746 39.5145 102.724 39.6109H102.743C102.777 39.5325 102.925 39.3156 103.194 38.9572L105.371 36.0562H106.311V40.9183H105.371V38.0173C105.371 37.9269 105.377 37.8004 105.387 37.6377C105.396 37.475 105.403 37.3877 105.403 37.3726H105.384C105.377 37.3846 105.23 37.5985 104.945 38.0173L102.758 40.9183H101.825Z" fill="white"/>
        <path d="M110.048 41.9274C110.236 42.069 110.428 42.1383 110.628 42.1383C111.035 42.1383 111.342 41.8973 111.546 41.4183L111.797 40.861L109.679 36.0562H110.769L112.038 39.2373L112.229 39.8247H112.248C112.301 39.6078 112.357 39.415 112.417 39.2494L113.645 36.0592H114.694L112.317 41.7949C112.169 42.1654 111.953 42.4486 111.662 42.6444C111.371 42.8402 111.045 42.9366 110.678 42.9366C110.512 42.9366 110.349 42.9095 110.189 42.8583C110.03 42.8071 109.911 42.7559 109.829 42.7047L109.71 42.6384L110.048 41.9274Z" fill="white"/>
        <path d="M115.136 38.4872C115.136 37.7642 115.39 37.1587 115.9 36.6707C116.411 36.1826 117.056 35.9417 117.843 35.9417C118.642 35.9417 119.274 36.1796 119.741 36.6526L119.281 37.3063C118.895 36.9358 118.429 36.749 117.88 36.749C117.373 36.749 116.953 36.9147 116.621 37.243C116.289 37.5744 116.123 37.9841 116.123 38.4781C116.123 38.9782 116.292 39.3939 116.627 39.7283C116.962 40.0627 117.392 40.2284 117.912 40.2284C118.19 40.2284 118.472 40.1681 118.758 40.0507C119.039 39.9332 119.278 39.7735 119.472 39.5747L119.86 40.2555C119.628 40.4935 119.331 40.6803 118.971 40.8218C118.61 40.9634 118.234 41.0327 117.843 41.0327C117.05 41.0327 116.402 40.7917 115.894 40.3127C115.39 39.8338 115.136 39.2252 115.136 38.4872Z" fill="white"/>
        <path d="M120.362 40.9665V40.132C120.741 40.0748 121.026 39.8458 121.217 39.4452C121.408 39.0445 121.502 38.4149 121.502 37.5564V36.0562H124.889V40.9183H123.92V36.8243H122.432V37.5533C122.432 38.674 122.27 39.5145 121.947 40.0718C121.621 40.6321 121.095 40.9303 120.362 40.9665Z" fill="white"/>
        <path d="M126.135 41.9274C126.323 42.069 126.514 42.1383 126.715 42.1383C127.122 42.1383 127.429 41.8973 127.633 41.4183L127.883 40.861L125.766 36.0562H126.856L128.125 39.2373L128.316 39.8247H128.334C128.388 39.6078 128.444 39.415 128.504 39.2494L129.732 36.0592H130.781L128.403 41.7949C128.256 42.1654 128.04 42.4486 127.749 42.6444C127.46 42.8402 127.131 42.9366 126.765 42.9366C126.599 42.9366 126.436 42.9095 126.276 42.8583C126.116 42.8071 125.997 42.7559 125.916 42.7047L125.797 42.6384L126.135 41.9274Z" fill="white"/>
        <path d="M131.73 40.9183V36.0562H134.898V36.8545H132.698V40.9183H131.73Z" fill="white"/>
        <path d="M135.859 40.9183V36.0562H136.79V38.9572C136.79 39.2976 136.78 39.5145 136.758 39.6109H136.777C136.812 39.5325 136.959 39.3156 137.228 38.9572L139.406 36.0562H140.346V40.9183H139.406V38.0173C139.406 37.9269 139.412 37.8004 139.421 37.6377C139.431 37.475 139.437 37.3877 139.437 37.3726H139.418C139.412 37.3846 139.265 37.5985 138.98 38.0173L136.79 40.9183H135.859Z" fill="white"/>
        <path d="M144.002 38.4872C144.002 37.7642 144.255 37.1587 144.766 36.6707C145.277 36.1826 145.922 35.9417 146.708 35.9417C147.507 35.9417 148.14 36.1796 148.607 36.6526L148.146 37.3063C147.761 36.9358 147.294 36.749 146.746 36.749C146.238 36.749 145.819 36.9147 145.487 37.243C145.154 37.5744 144.988 37.9841 144.988 38.4781C144.988 38.9782 145.158 39.3939 145.493 39.7283C145.828 40.0627 146.257 40.2284 146.777 40.2284C147.056 40.2284 147.338 40.1681 147.623 40.0507C147.905 39.9332 148.143 39.7735 148.337 39.5747L148.726 40.2555C148.494 40.4935 148.196 40.6803 147.836 40.8218C147.476 40.9634 147.1 41.0327 146.708 41.0327C145.916 41.0327 145.267 40.7917 144.76 40.3127C144.255 39.8338 144.002 39.2252 144.002 38.4872Z" fill="white"/>
        <path d="M152.275 40.9183V36.0562H153.243V38.0173H153.951L155.33 36.0562H156.429L154.741 38.3727V38.3908L156.63 40.9183H155.48L153.97 38.8156H153.24V40.9183H152.275Z" fill="white"/>
        <path d="M156.953 38.4872C156.953 37.725 157.194 37.1105 157.673 36.6436C158.152 36.1766 158.76 35.9417 159.49 35.9417C160.176 35.9417 160.712 36.1585 161.1 36.5893C161.486 37.0231 161.68 37.5654 161.68 38.2191C161.68 38.3034 161.667 38.433 161.639 38.6137H157.961C157.986 39.1198 158.165 39.5144 158.497 39.8006C158.826 40.0868 159.227 40.2284 159.7 40.2284C160.251 40.2284 160.749 40.0386 161.188 39.662L161.598 40.3429C161.357 40.5537 161.06 40.7224 160.706 40.8459C160.348 40.9695 159.994 41.0327 159.64 41.0327C158.854 41.0327 158.209 40.7917 157.708 40.3067C157.203 39.8247 156.953 39.2192 156.953 38.4872ZM157.989 37.9419H160.696C160.684 37.5383 160.561 37.225 160.333 36.999C160.104 36.7761 159.816 36.6616 159.468 36.6616C159.089 36.6616 158.763 36.7761 158.494 37.002C158.224 37.231 158.058 37.5443 157.989 37.9419Z" fill="white"/>
        <path d="M162.845 40.9183V36.0562H163.776V40.1109H165.643V36.0562H166.583V40.1109H168.45V36.0562H169.38V40.9183H162.845Z" fill="white"/>
        <path d="M170.662 38.1227C170.662 37.219 170.828 36.496 171.16 35.9507C171.492 35.4055 172.087 34.9596 172.939 34.6162L174.747 33.8661L175.066 34.6343L173.127 35.4115C172.62 35.6344 172.244 35.8995 171.993 36.2038C171.742 36.508 171.601 36.8906 171.567 37.3515H171.586C171.987 36.7761 172.582 36.4869 173.375 36.4869C174.014 36.4869 174.531 36.6918 174.929 37.0985C175.323 37.5051 175.524 38.0474 175.524 38.7282C175.524 39.406 175.304 39.9603 174.863 40.3911C174.424 40.8189 173.848 41.0357 173.133 41.0357C172.313 41.0357 171.695 40.7707 171.279 40.2435C170.868 39.7133 170.662 39.0084 170.662 38.1227ZM171.67 38.7282C171.67 39.1951 171.808 39.5657 172.081 39.8368C172.353 40.1079 172.695 40.2465 173.099 40.2465C173.512 40.2465 173.857 40.1109 174.133 39.8368C174.408 39.5657 174.546 39.2012 174.546 38.7463C174.546 38.2854 174.408 37.9179 174.136 37.6407C173.863 37.3666 173.528 37.228 173.137 37.228C172.71 37.228 172.36 37.3696 172.084 37.6558C171.808 37.9419 171.67 38.3004 171.67 38.7282Z" fill="white"/>
        <path d="M176.175 40.3037L176.554 39.641C176.98 40.0567 177.51 40.2646 178.143 40.2646C178.61 40.2646 179.007 40.132 179.336 39.8669C179.665 39.6018 179.863 39.2524 179.932 38.8246H177.513V38.1528H179.932C179.866 37.716 179.668 37.3666 179.343 37.1015C179.017 36.8364 178.625 36.7038 178.174 36.7038C177.613 36.7038 177.128 36.8936 176.714 37.2702L176.276 36.6255C176.489 36.4026 176.771 36.2309 177.121 36.1164C177.472 36.0019 177.833 35.9447 178.205 35.9447C178.985 35.9447 179.625 36.1857 180.129 36.6707C180.633 37.1557 180.884 37.7612 180.884 38.4902C180.884 39.2283 180.633 39.8368 180.129 40.3158C179.625 40.7948 178.979 41.0358 178.187 41.0358C177.372 41.0358 176.702 40.7918 176.175 40.3037Z" fill="white"/>
        <path d="M182.062 40.9183V36.0562H183.03V38.0173H183.738L185.116 36.0562H186.216L184.527 38.3727V38.3908L186.416 40.9183H185.267L183.756 38.8156H183.027V40.9183H182.062Z" fill="white"/>
        <path d="M186.736 38.4781C186.736 37.7552 186.999 37.1496 187.525 36.6677C188.052 36.1826 188.694 35.9417 189.455 35.9417C190.22 35.9417 190.868 36.1826 191.394 36.6616C191.921 37.1406 192.184 37.7461 192.184 38.4781C192.184 39.2072 191.921 39.8157 191.394 40.3037C190.868 40.7917 190.226 41.0327 189.465 41.0327C188.703 41.0327 188.061 40.7887 187.532 40.3037C187.002 39.8187 186.736 39.2102 186.736 38.4781ZM187.726 38.4781C187.726 38.9842 187.895 39.403 188.23 39.7313C188.565 40.0627 188.979 40.2254 189.465 40.2254C189.944 40.2254 190.354 40.0597 190.693 39.7253C191.031 39.3909 191.203 38.9752 191.203 38.4751C191.203 37.9751 191.034 37.5624 190.693 37.237C190.354 36.9117 189.944 36.746 189.465 36.746C188.979 36.746 188.565 36.9087 188.23 37.237C187.895 37.5654 187.726 37.9781 187.726 38.4781Z" fill="white"/>
        <path d="M193.143 40.9183L193.581 36.0562H194.659L195.946 38.8035L196.225 39.4572H196.244C196.344 39.2192 196.438 39.0023 196.523 38.8035L197.842 36.0562H198.901L199.339 40.9183H198.399L198.18 38.0263L198.189 37.1919H198.171C198.083 37.4148 197.976 37.6528 197.851 37.9028L196.651 40.3338H195.821L194.621 37.9118L194.302 37.1919H194.283L194.292 38.0263L194.073 40.9183H193.143Z" fill="white"/>
    </g>
    <defs>
        <clipPath id="clip0_9238_141891">
            <rect width="200" height="44" fill="white"/>
        </clipPath>
    </defs>
</svg>
