<svg width="62" height="62" viewBox="0 0 62 62" fill="none" xmlns="http://www.w3.org/2000/svg">
<circle cx="46" cy="16" r="16" fill="#FFDBBC"/>
<g clip-path="url(#clip0_9315_142115)">
<path d="M43.75 24.5083H4.6875V22.9461L39.0625 20.1967V22.9461H43.75V18.2597C43.75 14.8229 40.9656 12.4109 37.5656 12.8952L6.1875 17.3755C2.78438 17.8629 0 21.0715 0 24.5083V55.7514C0 57.4086 0.65848 58.998 1.83058 60.1698C3.00268 61.3417 4.5924 62 6.25 62H43.75C45.4076 62 46.9973 61.3417 48.1694 60.1698C49.3415 58.998 50 57.4086 50 55.7514V30.7569C50 29.0997 49.3415 27.5103 48.1694 26.3385C46.9973 25.1666 45.4076 24.5083 43.75 24.5083ZM39.0625 46.3972C38.4467 46.397 37.837 46.2755 37.2682 46.0398C36.6994 45.804 36.1826 45.4585 35.7473 45.023C35.312 44.5875 34.9668 44.0706 34.7313 43.5018C34.4959 42.9329 34.3748 42.3233 34.375 41.7076C34.3752 41.092 34.4967 40.4824 34.7325 39.9137C34.9684 39.345 35.3139 38.8283 35.7495 38.3931C36.1851 37.958 36.7021 37.6128 37.2711 37.3774C37.8401 37.142 38.4498 37.0209 39.0656 37.0211C40.3092 37.0216 41.5018 37.5159 42.3808 38.3953C43.2599 39.2748 43.7535 40.4674 43.7531 41.7107C43.7527 42.9541 43.2583 44.1463 42.3786 45.0252C41.499 45.9041 40.3061 46.3976 39.0625 46.3972Z" fill="#064492"/>
</g>
<defs>
<clipPath id="clip0_9315_142115">
<rect width="50" height="50" fill="white" transform="translate(0 12)"/>
</clipPath>
</defs>
</svg>
